<svg width="32" height="32" viewBox="0 0 32 32" fill="none" xmlns="http://www.w3.org/2000/svg">
<path d="M31.9915 16.5247C31.9972 16.3505 32 16.1755 32 16C32 15.8245 31.9972 15.6495 31.9915 15.4753L30.9921 15.5076C30.9959 15.6255 30.9983 15.7439 30.9994 15.8625C30.9998 15.9083 31 15.9542 31 16C31 16.1648 30.9973 16.329 30.9921 16.4924L31.9915 16.5247Z" fill="#187779"/>
<path d="M31.7886 13.3925C31.7318 13.0462 31.6639 12.7036 31.5853 12.3651L30.6113 12.5914C30.6849 12.9086 30.7486 13.2296 30.8018 13.5543L31.7886 13.3925Z" fill="#187779"/>
<path d="M30.9785 10.3623C30.8953 10.1414 30.8073 9.92273 30.7148 9.7066C30.67 9.60211 30.6242 9.49823 30.5773 9.3949L29.6667 9.80817C29.8016 10.1053 29.927 10.4076 30.0426 10.7147L30.9785 10.3623Z" fill="#187779"/>
<path d="M29.5892 7.54993C29.4043 7.25323 29.21 6.96301 29.0066 6.67975L28.1942 7.26294C28.3849 7.52856 28.5671 7.8006 28.7404 8.0788L29.5892 7.54993Z" fill="#187779"/>
<path d="M27.6779 5.0625C27.4392 4.80774 27.1922 4.56079 26.9375 4.32208L26.2537 5.05182C26.4927 5.2757 26.7243 5.50732 26.9482 5.74628L27.6779 5.0625Z" fill="#187779"/>
<path d="M25.3202 2.99341C25.037 2.79004 24.7468 2.5957 24.4501 2.41083L23.9212 3.25952C24.1994 3.43286 24.4715 3.61505 24.7371 3.80573L25.3202 2.99341Z" fill="#187779"/>
<path d="M22.6051 1.42267C22.288 1.27881 21.9654 1.1449 21.6377 1.02155L21.2853 1.95734C21.5924 2.073 21.8947 2.19843 22.1918 2.33331L22.6051 1.42267Z" fill="#187779"/>
<path d="M19.6349 0.414673C19.2964 0.33606 18.9538 0.268188 18.6075 0.211426L18.4457 1.19824C18.7704 1.25146 19.0914 1.31506 19.4086 1.38873L19.6349 0.414673Z" fill="#187779"/>
<path d="M16.5247 0.00842285C16.3984 0.0043335 16.2718 0.00177002 16.1449 0.000671387C16.0966 0.000244141 16.0483 0 16 0C15.8244 0 15.6495 0.00280762 15.4753 0.00842285L15.5075 1.00793C15.671 1.00262 15.8352 1 16 1C16.1648 1 16.329 1.00262 16.4925 1.00793L16.5247 0.00842285Z" fill="#187779"/>
<path d="M13.3925 0.211426C13.0462 0.268188 12.7036 0.33606 12.3651 0.414673L12.5914 1.38873C12.9086 1.31506 13.2296 1.25146 13.5543 1.19824L13.3925 0.211426Z" fill="#187779"/>
<path d="M10.3623 1.02155C10.0346 1.1449 9.71198 1.27881 9.39493 1.42267L9.80817 2.33331C10.1053 2.19843 10.4076 2.073 10.7147 1.95734L10.3623 1.02155Z" fill="#187779"/>
<path d="M7.54993 2.41083C7.25323 2.5957 6.96304 2.79004 6.67975 2.99341L7.26291 3.80573C7.52853 3.61505 7.80063 3.43286 8.07877 3.25952L7.54993 2.41083Z" fill="#187779"/>
<path d="M5.06253 4.32208C4.80777 4.56079 4.56082 4.80774 4.32211 5.0625L5.05182 5.74628C5.2757 5.50732 5.50732 5.2757 5.74625 5.05182L5.06253 4.32208Z" fill="#187779"/>
<path d="M2.99338 6.67975C2.79004 6.96301 2.5957 7.25323 2.41083 7.54993L3.25955 8.0788C3.43286 7.80066 3.61505 7.52856 3.80576 7.26294L2.99338 6.67975Z" fill="#187779"/>
<path d="M1.42267 9.3949C1.27878 9.71198 1.14493 10.0345 1.02151 10.3623L1.95737 10.7147C2.073 10.4076 2.19843 10.1053 2.33328 9.80817L1.42267 9.3949Z" fill="#187779"/>
<path d="M0.414673 12.3651C0.33606 12.7036 0.268158 13.0462 0.211395 13.3925L1.19824 13.5543C1.25143 13.2296 1.31506 12.9086 1.38873 12.5914L0.414673 12.3651Z" fill="#187779"/>
<path d="M0 16C0 15.8245 0.00283813 15.6495 0.00845337 15.4753L1.00793 15.5076C1.00266 15.671 1 15.8352 1 16C1 16.1175 1.00134 16.2347 1.00403 16.3516C1.00513 16.3986 1.00641 16.4456 1.00793 16.4924L0.00845337 16.5247C0.00283813 16.3505 0 16.1755 0 16Z" fill="#187779"/>
<path d="M0.211395 18.6075C0.268158 18.9538 0.33606 19.2964 0.414673 19.6349L1.38873 19.4086C1.35596 19.2675 1.32516 19.1256 1.29639 18.983C1.2605 18.8051 1.22778 18.6259 1.19824 18.4457L0.211395 18.6075Z" fill="#187779"/>
<path d="M1.02151 21.6377C1.08063 21.7947 1.14212 21.9504 1.20599 22.105C1.27545 22.2732 1.34769 22.4399 1.42267 22.6051L2.33328 22.1918C2.19843 21.8947 2.073 21.5924 1.95737 21.2853L1.02151 21.6377Z" fill="#187779"/>
<path d="M2.41083 24.4501C2.5957 24.7468 2.79004 25.037 2.99338 25.3203L3.80576 24.7371C3.61505 24.4714 3.43286 24.1993 3.25955 23.9212L2.41083 24.4501Z" fill="#187779"/>
<path d="M4.32211 26.9375C4.56082 27.1923 4.80777 27.4392 5.06253 27.6779L5.74628 26.9482C5.50732 26.7243 5.27573 26.4927 5.05182 26.2537L4.32211 26.9375Z" fill="#187779"/>
<path d="M6.67978 29.0066C6.96304 29.21 7.25323 29.4043 7.54993 29.5892L8.0788 28.7405C7.80063 28.5671 7.52853 28.3849 7.26291 28.1943L6.67978 29.0066Z" fill="#187779"/>
<path d="M9.39493 30.5773C9.71198 30.7212 10.0346 30.8551 10.3623 30.9785L10.7147 30.0427C10.4076 29.927 10.1053 29.8016 9.80817 29.6667L9.39493 30.5773Z" fill="#187779"/>
<path d="M12.3651 31.5853C12.7036 31.6639 13.0462 31.7318 13.3925 31.7886L13.5543 30.8018C13.2296 30.7485 12.9086 30.6849 12.5914 30.6113L12.3651 31.5853Z" fill="#187779"/>
<path d="M15.4753 31.9916C15.6495 31.9972 15.8244 32 16 32C16.1075 32 16.2148 31.999 16.3218 31.9969C16.3895 31.9955 16.4572 31.9938 16.5247 31.9916L16.4925 30.9921C16.329 30.9973 16.1648 31 16 31C15.8352 31 15.671 30.9973 15.5075 30.9921L15.4753 31.9916Z" fill="#187779"/>
<path d="M18.6075 31.7886C18.8271 31.7526 19.0451 31.7121 19.2616 31.6673C19.3866 31.6414 19.511 31.6141 19.6349 31.5853L19.4086 30.6113C19.0914 30.6849 18.7704 30.7485 18.4457 30.8018L18.6075 31.7886Z" fill="#187779"/>
<path d="M21.6377 30.9785C21.9654 30.8551 22.288 30.7212 22.6051 30.5773L22.1918 29.6667C21.8947 29.8016 21.5924 29.927 21.2853 30.0427L21.6377 30.9785Z" fill="#187779"/>
<path d="M24.4501 29.5892C24.7468 29.4043 25.037 29.21 25.3203 29.0066L24.7371 28.1943C24.4715 28.3849 24.1994 28.5671 23.9212 28.7405L24.4501 29.5892Z" fill="#187779"/>
<path d="M26.9375 27.6779C27.1922 27.4392 27.4392 27.1923 27.6779 26.9375L26.9482 26.2537C26.7243 26.4927 26.4927 26.7243 26.2538 26.9482L26.9375 27.6779Z" fill="#187779"/>
<path d="M29.3875 24.7655C29.2643 24.9532 29.1373 25.1382 29.0066 25.3203L28.1942 24.7371C28.3849 24.4714 28.5671 24.1993 28.7405 23.9212L29.5892 24.4501C29.5231 24.556 29.4559 24.6612 29.3875 24.7655Z" fill="#187779"/>
<path d="M30.5773 22.6051C30.7212 22.288 30.8551 21.9654 30.9785 21.6377L30.0426 21.2853C29.927 21.5924 29.8016 21.8947 29.6667 22.1918L30.5773 22.6051Z" fill="#187779"/>
<path d="M31.5853 19.6349C31.6639 19.2964 31.7318 18.9538 31.7886 18.6075L30.8018 18.4457C30.7486 18.7704 30.6849 19.0914 30.6113 19.4086L31.5853 19.6349Z" fill="#187779"/>
<path d="M17.0937 17.0927H22.2335C22.6558 17.0927 23 16.7513 23 16.3289V15.6674C23 15.2454 22.6558 14.9053 22.2335 14.9053H17.0938V9.7558C17.0938 9.33386 16.7519 8.99915 16.3296 8.99915H15.6718C15.2496 8.99915 14.9063 9.3338 14.9063 9.7558V14.9053H9.76569C9.34351 14.9053 9 15.2453 9 15.6674V16.3289C9 16.7513 9.34363 17.0927 9.76569 17.0927H14.9062V22.2237C14.9062 22.6459 15.2496 22.999 15.6718 22.999H16.3295C16.7518 22.999 17.0937 22.6459 17.0937 22.2237V17.0927Z" fill="#187779"/>
</svg>
