<svg width="13" height="7" viewBox="0 0 13 7" fill="none" xmlns="http://www.w3.org/2000/svg">
<path d="M11.4687 0.342194C11.3708 0.342194 11.2812 0.378165 11.1997 0.442914L6.61022 4.50047L2.02079 0.450108C1.93927 0.378166 1.8496 0.349389 1.75178 0.349389C1.65396 0.349389 1.56429 0.38536 1.48278 0.450108L0.895849 0.968094C0.814332 1.04004 0.781725 1.11917 0.781725 1.2055C0.781725 1.29183 0.822483 1.37097 0.895849 1.44291L6.34122 6.24147C6.42273 6.31342 6.5124 6.34219 6.61022 6.34219C6.70804 6.34219 6.79771 6.30622 6.87923 6.24147L12.3246 1.43572C12.4061 1.36378 12.4387 1.28464 12.4387 1.19831C12.4387 1.11198 12.398 1.03284 12.3246 0.960899L11.7377 0.442914C11.6643 0.378165 11.5746 0.342194 11.4687 0.342194Z" fill="#187779"/>
</svg>
