<svg width="15" height="13" viewBox="0 0 15 13" fill="none" xmlns="http://www.w3.org/2000/svg">
<path fill-rule="evenodd" clip-rule="evenodd" d="M8.81943 0.223477C8.37161 0.206222 7.95609 0.462533 7.7731 0.871723C7.58791 1.28086 7.66761 1.75897 7.97764 2.08634L10.7361 5.11925L1.42767 5.11925C1.02937 5.11279 0.661218 5.32169 0.460985 5.66627C0.25861 6.00869 0.25861 6.43509 0.460985 6.77751C0.661218 7.12209 1.02938 7.33098 1.42767 7.32453L10.7361 7.32453L7.97763 10.3574C7.70206 10.6461 7.60516 11.0595 7.7214 11.4407C7.83764 11.8219 8.14987 12.1105 8.53739 12.1966C8.92707 12.2828 9.33184 12.1514 9.59667 11.8564L14.7578 6.22189L9.59667 0.587405C9.39859 0.36776 9.11656 0.234229 8.81943 0.223477Z" fill="#7B8794"/>
</svg>
