<svg width="35" height="32" viewBox="0 0 35 32" fill="none" xmlns="http://www.w3.org/2000/svg">
<g clip-path="url(#clip0_226:11734)">
<path d="M34.4499 7.28315C34.9995 8.08602 35.1441 8.97491 34.8259 9.97849L29.0408 28.8459C28.7805 29.7348 28.2309 30.4803 27.4209 31.0824C26.611 31.6846 25.7433 32 24.8466 32H5.4664C4.39616 32 3.35483 31.6272 2.34244 30.8817C1.33004 30.1362 0.635825 29.2186 0.259792 28.129C-0.0873157 27.2115 -0.0873157 26.3226 0.230866 25.491C0.230866 25.4337 0.259792 25.2617 0.288717 24.9176C0.317643 24.6022 0.346569 24.3441 0.375494 24.1434C0.375494 24.0287 0.375494 23.8853 0.317643 23.6846C0.259792 23.4839 0.230866 23.3692 0.259792 23.2832C0.288717 23.1398 0.346569 22.9964 0.433345 22.853C0.520122 22.7097 0.635825 22.5376 0.780453 22.3656C0.925081 22.1649 1.04078 22.0215 1.12756 21.8781C1.44574 21.362 1.76392 20.7025 2.08211 19.9857C2.40029 19.2401 2.60277 18.6093 2.71847 18.0932C2.7474 17.9498 2.77632 17.7491 2.71847 17.4624C2.68954 17.1756 2.68954 17.0036 2.71847 16.8889C2.7474 16.7455 2.89202 16.5448 3.06558 16.3154C3.26806 16.086 3.38376 15.914 3.41268 15.828C3.70194 15.3405 3.9912 14.681 4.30938 13.9068C4.59863 13.1326 4.77219 12.5018 4.83004 12.043C4.83004 11.9283 4.83004 11.6989 4.77219 11.3835C4.71434 11.0681 4.71434 10.8674 4.77219 10.81C4.83004 10.638 4.97467 10.4086 5.235 10.1792C5.49533 9.94982 5.63996 9.77778 5.69781 9.72043C5.95814 9.34767 6.24739 8.77419 6.5945 7.97133C6.91268 7.16846 7.11516 6.48029 7.17301 5.96416C7.17301 5.84946 7.17301 5.67742 7.11516 5.41935C7.05731 5.18996 7.05731 4.98925 7.08624 4.87455C7.11516 4.75986 7.17301 4.64516 7.28872 4.50179C7.37549 4.35842 7.52012 4.21505 7.66475 4.01434C7.80938 3.84229 7.92508 3.69892 8.01186 3.58423C8.12756 3.41219 8.24326 3.21147 8.35896 2.95341C8.47467 2.69534 8.59037 2.46595 8.67715 2.23656C8.76392 2.00717 8.87963 1.7491 9.02425 1.49104C9.11103 1.14695 9.25566 0.917563 9.37136 0.74552C9.51599 0.573477 9.68954 0.401434 9.92095 0.258065C10.1813 0.0860215 10.4127 0.0286738 10.7019 0C10.9623 0 11.3094 0.0286738 11.7143 0.114695L11.6854 0.172043C12.2061 0.0573477 12.5532 0 12.7557 0H28.7515C29.7928 0 30.5738 0.401434 31.1524 1.17563C31.7019 1.94982 31.8466 2.86738 31.5284 3.87097L25.7433 22.7384C25.2515 24.4014 24.7309 25.4624 24.2391 25.9498C23.7474 26.4086 22.8507 26.6667 21.549 26.6667H3.29698C2.92095 26.6667 2.66062 26.7814 2.48706 26.9821C2.34244 27.2115 2.31351 27.4982 2.45814 27.871C2.80525 28.8459 3.78872 29.3333 5.49533 29.3333H24.8755C25.2805 29.3333 25.6854 29.2186 26.0614 29.0179C26.4375 28.7885 26.6978 28.5018 26.7846 28.1577L33.0904 7.59857C33.1771 7.28315 33.235 6.91039 33.2061 6.42294C33.7267 6.59498 34.1606 6.91039 34.4499 7.28315ZM10.3548 12.6738C10.297 12.8459 10.3259 13.0179 10.3838 13.1326C10.4705 13.276 10.6152 13.3333 10.8176 13.3333H23.6028C23.7763 13.3333 23.9499 13.276 24.1524 13.1326C24.3259 12.9892 24.4416 12.8459 24.4995 12.6738L24.9333 11.3548C24.9912 11.1828 24.9623 11.0108 24.9044 10.8961C24.8176 10.7527 24.673 10.6953 24.4705 10.6953H11.6854C11.5119 10.6953 11.3383 10.7527 11.1358 10.8961C10.9623 11.0394 10.8466 11.1828 10.7887 11.3548L10.3548 12.6738ZM12.0904 7.3405C12.0325 7.51255 12.0614 7.68459 12.1193 7.79928C12.2061 7.94265 12.3507 8 12.5532 8H25.3383C25.5119 8 25.6854 7.94265 25.8879 7.79928C26.0614 7.65591 26.1771 7.51255 26.235 7.3405L26.6689 6.02151C26.7267 5.84946 26.6978 5.67742 26.64 5.56272C26.5532 5.41935 26.4086 5.36201 26.2061 5.36201H13.4209C13.2474 5.36201 13.0738 5.41935 12.8714 5.56272C12.6978 5.70609 12.5821 5.84946 12.5243 6.02151L12.0904 7.3405Z" fill="#187779"/>
</g>
<defs>
<clipPath id="clip0_226:11734">
<rect width="35" height="32" fill="white"/>
</clipPath>
</defs>
</svg>
