<svg width="14" height="14" viewBox="0 0 14 14" fill="none" xmlns="http://www.w3.org/2000/svg">
<path d="M3.74249 2.55652H3.77643C3.85675 2.55652 3.93636 2.54066 4.01056 2.50989C4.08475 2.47912 4.15217 2.43404 4.20892 2.3772C4.26567 2.32036 4.3106 2.25296 4.34125 2.17871C4.37189 2.10447 4.38764 2.0249 4.38751 1.94458V0.721558C4.38764 0.641284 4.37191 0.561739 4.34125 0.48755C4.31059 0.41336 4.26556 0.345948 4.2088 0.289185C4.15204 0.232423 4.08463 0.187398 4.01044 0.156739C3.93625 0.12608 3.8567 0.110465 3.77643 0.110597H3.74249C3.66217 0.110465 3.58261 0.126092 3.50836 0.156739C3.43412 0.187386 3.3666 0.232436 3.30975 0.289185C3.25291 0.345935 3.20783 0.413354 3.17706 0.48755C3.14629 0.561745 3.13043 0.641237 3.13043 0.721558V1.94458C3.13043 2.10689 3.19498 2.26255 3.30975 2.37732C3.42453 2.49209 3.58018 2.55652 3.74249 2.55652Z" fill="#C4C4C4"/>
<path d="M10.0595 2.55652H10.0934C10.2558 2.55652 10.4114 2.49209 10.5262 2.37732C10.641 2.26255 10.7055 2.10689 10.7055 1.94458V0.721558C10.7055 0.641237 10.6896 0.561745 10.6589 0.48755C10.6281 0.413354 10.583 0.345935 10.5262 0.289185C10.4693 0.232436 10.4018 0.187386 10.3276 0.156739C10.2533 0.126092 10.1738 0.110465 10.0934 0.110597H10.0595C9.97924 0.110465 9.89969 0.12608 9.8255 0.156739C9.75131 0.187398 9.6839 0.232423 9.62714 0.289185C9.57037 0.345948 9.52535 0.41336 9.49469 0.48755C9.46403 0.561739 9.44829 0.641284 9.44843 0.721558V1.94458C9.44829 2.0249 9.46404 2.10447 9.49469 2.17871C9.52534 2.25296 9.57039 2.32036 9.62714 2.3772C9.68389 2.43404 9.75118 2.47912 9.82538 2.50989C9.89957 2.54066 9.97919 2.55652 10.0595 2.55652Z" fill="#C4C4C4"/>
<path d="M11.8934 1.74156H11.3154V1.94151C11.3152 2.26579 11.1863 2.57672 10.957 2.80602C10.7277 3.03532 10.4168 3.16427 10.0925 3.16454H10.0585C9.73419 3.16427 9.42327 3.03532 9.19397 2.80602C8.96467 2.57672 8.83571 2.26579 8.83545 1.94151V1.74156H4.99744V1.94151C4.99717 2.26579 4.86822 2.57672 4.63892 2.80602C4.40962 3.03532 4.09869 3.16427 3.77441 3.16454H3.74048C3.4162 3.16427 3.10528 3.03532 2.87598 2.80602C2.64668 2.57672 2.51772 2.26579 2.51746 1.94151V1.74156H2.1095C1.89541 1.74143 1.68342 1.78347 1.4856 1.86534C1.28778 1.94721 1.10793 2.06723 0.956543 2.21861C0.805158 2.37 0.68514 2.54972 0.603272 2.74754C0.521403 2.94536 0.479361 3.15748 0.479492 3.37157V11.5226C0.479492 11.9549 0.651225 12.3695 0.956909 12.6752C1.26259 12.9808 1.67719 13.1526 2.1095 13.1526H11.8905C12.3227 13.1523 12.7371 12.9804 13.0427 12.6748C13.3484 12.3692 13.5202 11.9548 13.5205 11.5226V3.37157C13.5205 2.93978 13.3491 2.52555 13.0441 2.21996C12.739 1.91436 12.3252 1.74236 11.8934 1.74156ZM12.7085 11.5226C12.708 11.7386 12.622 11.9455 12.4692 12.0983C12.3165 12.251 12.1094 12.337 11.8934 12.3375H2.11243C1.89636 12.3372 1.68928 12.2513 1.5365 12.0985C1.38371 11.9457 1.29775 11.7386 1.29749 11.5226V5.00157H12.7085V11.5226Z" fill="#C4C4C4"/>
<path d="M3.74248 8.04054C4.29587 8.04054 4.74448 7.59193 4.74448 7.03854C4.74448 6.48516 4.29587 6.03654 3.74248 6.03654C3.18909 6.03654 2.74048 6.48516 2.74048 7.03854C2.74048 7.59193 3.18909 8.04054 3.74248 8.04054Z" fill="#C4C4C4"/>
<path d="M7.00142 8.33554C6.74431 8.33554 6.49291 8.25927 6.27913 8.11643C6.06535 7.97358 5.89877 7.77047 5.80037 7.53293C5.70198 7.29539 5.67624 7.03401 5.7264 6.78183C5.77656 6.52966 5.90042 6.29811 6.08223 6.1163C6.26404 5.9345 6.49558 5.81063 6.74776 5.76047C6.99993 5.71031 7.26131 5.73605 7.49886 5.83444C7.7364 5.93284 7.93951 6.09942 8.08235 6.3132C8.2252 6.52699 8.30147 6.77838 8.30147 7.03549C8.30147 7.38028 8.16441 7.71089 7.92061 7.95468C7.67681 8.19848 7.3462 8.33554 7.00142 8.33554ZM7.00142 6.33554C6.86179 6.33554 6.72531 6.37686 6.60921 6.45444C6.49311 6.53202 6.40263 6.64233 6.3492 6.77133C6.29576 6.90034 6.2818 7.04222 6.30904 7.17917C6.33628 7.31612 6.40342 7.44201 6.50215 7.54074C6.60089 7.63948 6.72678 7.70674 6.86373 7.73398C7.00068 7.76122 7.14256 7.74713 7.27156 7.6937C7.40057 7.64026 7.51088 7.54979 7.58846 7.43369C7.66603 7.31759 7.70748 7.18111 7.70748 7.04148C7.70774 6.94855 7.6896 6.85654 7.65425 6.7706C7.6189 6.68466 7.56699 6.60647 7.50142 6.54062C7.43585 6.47477 7.35797 6.42253 7.27217 6.38681C7.18638 6.3511 7.09435 6.33262 7.00142 6.33249V6.33554Z" fill="#C4C4C4"/>
<path d="M10.2635 8.04054C10.8169 8.04054 11.2655 7.59193 11.2655 7.03854C11.2655 6.48516 10.8169 6.03654 10.2635 6.03654C9.71008 6.03654 9.26147 6.48516 9.26147 7.03854C9.26147 7.59193 9.71008 8.04054 10.2635 8.04054Z" fill="#C4C4C4"/>
<path d="M3.74248 11.3015C4.29587 11.3015 4.74448 10.8529 4.74448 10.2995C4.74448 9.74614 4.29587 9.29753 3.74248 9.29753C3.18909 9.29753 2.74048 9.74614 2.74048 10.2995C2.74048 10.8529 3.18909 11.3015 3.74248 11.3015Z" fill="#C4C4C4"/>
<path d="M7.00249 11.3015C7.55588 11.3015 8.00449 10.8529 8.00449 10.2995C8.00449 9.74614 7.55588 9.29753 7.00249 9.29753C6.4491 9.29753 6.00049 9.74614 6.00049 10.2995C6.00049 10.8529 6.4491 11.3015 7.00249 11.3015Z" fill="#C4C4C4"/>
<path d="M10.2635 11.3015C10.8169 11.3015 11.2655 10.8529 11.2655 10.2995C11.2655 9.74614 10.8169 9.29753 10.2635 9.29753C9.71008 9.29753 9.26147 9.74614 9.26147 10.2995C9.26147 10.8529 9.71008 11.3015 10.2635 11.3015Z" fill="#C4C4C4"/>
</svg>
