<svg width="10" height="13" viewBox="0 0 10 13" fill="none" xmlns="http://www.w3.org/2000/svg">
<path d="M2.45455 0.631531C1.10455 0.631531 0 1.73608 0 3.08608V11.8133C0 12.265 0.366545 12.6315 0.818181 12.6315H9.13636C9.588 12.6315 9.95454 12.265 9.95454 11.8133V3.08608C9.95454 1.73608 8.85 0.631531 7.5 0.631531H2.45455ZM2.52272 3.90426H3.61364C3.91473 3.90426 4.15909 4.14862 4.15909 4.44971V5.54062C4.15909 5.84171 3.91473 6.08608 3.61364 6.08608H2.52272C2.22163 6.08608 1.97727 5.84171 1.97727 5.54062V4.44971C1.97727 4.14862 2.22163 3.90426 2.52272 3.90426ZM6.34091 3.90426H7.43182C7.73291 3.90426 7.97727 4.14862 7.97727 4.44971V5.54062C7.97727 5.84171 7.73291 6.08608 7.43182 6.08608H6.34091C6.03982 6.08608 5.79545 5.84171 5.79545 5.54062V4.44971C5.79545 4.14862 6.03982 3.90426 6.34091 3.90426ZM2.52272 7.72244H3.61364C3.91473 7.72244 4.15909 7.9668 4.15909 8.26789V9.3588C4.15909 9.65989 3.91473 9.90426 3.61364 9.90426H2.52272C2.22163 9.90426 1.97727 9.65989 1.97727 9.3588V8.26789C1.97727 7.9668 2.22163 7.72244 2.52272 7.72244ZM6.34091 7.72244H7.43182C7.73291 7.72244 7.97727 7.9668 7.97727 8.26789V9.3588C7.97727 9.65989 7.73291 9.90426 7.43182 9.90426H6.34091C6.03982 9.90426 5.79545 9.65989 5.79545 9.3588V8.26789C5.79545 7.9668 6.03982 7.72244 6.34091 7.72244Z" fill="white"/>
</svg>
