<svg width="36" height="36" viewBox="0 0 36 36" fill="none" xmlns="http://www.w3.org/2000/svg">
<path fill-rule="evenodd" clip-rule="evenodd" d="M0 18C0 8.05982 8.05982 0 18 0C27.9402 0 36 8.05982 36 18C36 27.9402 27.9402 36 18 36C8.05982 36 0 27.9402 0 18ZM3.05357 18C3.05357 26.2527 9.74732 32.9464 18 32.9464C26.2527 32.9464 32.9464 26.2527 32.9464 18C32.9464 9.74732 26.2527 3.05357 18 3.05357C9.74732 3.05357 3.05357 9.74732 3.05357 18ZM19.29 18.9448L25.0195 23.0872C25.1641 23.1877 25.1963 23.3886 25.0918 23.5372L23.9427 25.1042C23.8383 25.2448 23.6374 25.277 23.4927 25.1725L16.8472 20.327C16.7628 20.2667 16.7146 20.1703 16.7146 20.0658V9.00063C16.7146 8.82384 16.8592 8.6792 17.036 8.6792H18.9686C19.1454 8.6792 19.29 8.82384 19.29 9.00063V18.9448Z" fill="#187779"/>
</svg>
