<svg width="39" height="33" viewBox="0 0 39 33" fill="none" xmlns="http://www.w3.org/2000/svg">
<path d="M39 13.7517C39 16.2388 38.1319 18.5377 36.3958 20.6485C34.6596 22.7593 32.2883 24.4313 29.3029 25.6434C26.3176 26.8765 23.057 27.4826 19.5 27.4826C18.4837 27.4826 17.4251 27.4199 16.3453 27.3154C13.4658 29.8233 10.1417 31.5579 6.33062 32.5193C5.61075 32.7283 4.78502 32.8746 3.85342 33H3.74756C3.53583 33 3.3241 32.9164 3.15472 32.7701C2.98534 32.6238 2.85831 32.4148 2.81596 32.1849V32.164C2.77362 32.1013 2.77362 32.0177 2.79479 31.9132C2.83713 31.8087 2.83713 31.7251 2.83713 31.7042C2.83713 31.6833 2.85831 31.5997 2.943 31.4953C3.00651 31.3908 3.04886 31.3281 3.07003 31.3072C3.09121 31.2863 3.13355 31.2236 3.21824 31.1191C3.30293 31.0146 3.36645 30.9519 3.38762 30.931C3.49349 30.8265 3.70521 30.5757 4.06515 30.1995C4.40391 29.8233 4.65798 29.5516 4.80619 29.3844C4.9544 29.2172 5.1873 28.9455 5.48371 28.5276C5.78013 28.1305 6.01303 27.7543 6.18241 27.4408C6.35179 27.1273 6.54235 26.6884 6.77524 26.1659C6.98697 25.6434 7.17752 25.1001 7.34691 24.5358C5.08143 23.24 3.28176 21.6517 1.96906 19.7916C0.656352 17.9107 0 15.9044 0 13.7517C0 11.8917 0.508143 10.1153 1.5456 8.42242C2.58306 6.72958 3.95928 5.26662 5.69544 4.03357C7.4316 2.80051 9.50651 1.81824 11.9202 1.10766C14.3339 0.355288 16.8534 0 19.5 0C22.1466 0 24.6661 0.355288 27.0798 1.08676C29.4935 1.81824 31.5684 2.77961 33.3046 4.01267C35.0407 5.24573 36.4381 6.70868 37.4544 8.40152C38.4707 10.1153 39 11.8917 39 13.7517ZM27.7997 4.24256C25.2166 3.23939 22.4642 2.75871 19.5 2.75871C16.5358 2.75871 13.7834 3.26029 11.2003 4.24256C8.61726 5.24573 6.58469 6.58328 5.06026 8.27612C3.53583 9.96897 2.79479 11.7872 2.79479 13.7517C2.79479 15.361 3.30293 16.8866 4.34039 18.3287C5.37785 19.7916 6.83876 21.0456 8.72313 22.0906L10.6075 23.1564L10.0147 25.2255C9.6759 26.5212 9.16775 27.7543 8.49023 28.9246C10.6922 28.026 12.6824 26.7929 14.4821 25.2464L15.4137 24.4313L16.6629 24.5567C17.658 24.6612 18.6107 24.7239 19.5 24.7239C22.4642 24.7239 25.2166 24.2223 27.7997 23.24C30.3827 22.2369 32.4153 20.8993 33.9397 19.2065C35.4642 17.5136 36.2052 15.6954 36.2052 13.7308C36.2052 11.7663 35.443 9.94807 33.9397 8.25523C32.4153 6.58328 30.3827 5.24573 27.7997 4.24256ZM13.1059 11.8081C13.6564 12.3515 13.9316 12.9994 13.9316 13.7517C13.9316 14.5041 13.6564 15.152 13.1059 15.6954C12.5554 16.2388 11.899 16.5105 11.1368 16.5105C10.3746 16.5105 9.71824 16.2388 9.16775 15.6954C8.61726 15.152 8.34202 14.5041 8.34202 13.7517C8.34202 12.9994 8.61726 12.3515 9.16775 11.8081C9.71824 11.2647 10.3746 10.993 11.1368 10.993C11.9202 10.993 12.5765 11.2647 13.1059 11.8081ZM21.4691 11.8081C22.0195 12.3515 22.2948 12.9994 22.2948 13.7517C22.2948 14.5041 22.0195 15.152 21.4691 15.6954C20.9186 16.2388 20.2622 16.5105 19.5 16.5105C18.7378 16.5105 18.0814 16.2388 17.5309 15.6954C16.9805 15.152 16.7052 14.5041 16.7052 13.7517C16.7052 12.9994 16.9805 12.3515 17.5309 11.8081C18.0814 11.2647 18.7378 10.993 19.5 10.993C20.2622 10.993 20.9186 11.2647 21.4691 11.8081ZM29.8322 11.8081C30.3827 12.3515 30.658 12.9994 30.658 13.7517C30.658 14.5041 30.3827 15.152 29.8322 15.6954C29.2818 16.2388 28.6254 16.5105 27.8632 16.5105C27.101 16.5105 26.4446 16.2388 25.8941 15.6954C25.3436 15.152 25.0684 14.5041 25.0684 13.7517C25.0684 12.9994 25.3436 12.3515 25.8941 11.8081C26.4446 11.2647 27.101 10.993 27.8632 10.993C28.6254 10.993 29.2818 11.2647 29.8322 11.8081Z" fill="#187779"/>
</svg>
