<svg width="26" height="26" viewBox="0 0 26 26" fill="none" xmlns="http://www.w3.org/2000/svg">
<path fill-rule="evenodd" clip-rule="evenodd" d="M0.251984 13.2189C0.251984 6.316 5.84908 0.718903 12.752 0.718903C19.6549 0.718903 25.252 6.316 25.252 13.2189C25.252 20.1218 19.6549 25.7189 12.752 25.7189C5.84908 25.7189 0.251984 20.1218 0.251984 13.2189ZM2.37252 13.2189C2.37252 18.9499 7.02096 23.5984 12.752 23.5984C18.483 23.5984 23.1314 18.9499 23.1314 13.2189C23.1314 7.48788 18.483 2.83944 12.752 2.83944C7.02096 2.83944 2.37252 7.48788 2.37252 13.2189ZM13.6478 13.875L17.6266 16.7517C17.7271 16.8215 17.7494 16.961 17.6769 17.0642L16.8789 18.1524C16.8063 18.25 16.6668 18.2724 16.5664 18.1998L11.9514 14.8349C11.8928 14.793 11.8593 14.726 11.8593 14.6535V6.96934C11.8593 6.84657 11.9598 6.74612 12.0826 6.74612H13.4246C13.5474 6.74612 13.6478 6.84657 13.6478 6.96934V13.875Z" fill="#B8B8B8"/>
</svg>
