<svg width="26" height="26" viewBox="0 0 26 26" fill="none" xmlns="http://www.w3.org/2000/svg">
<path fill-rule="evenodd" clip-rule="evenodd" d="M0.251953 13.2189C0.251953 6.31597 5.84905 0.718872 12.752 0.718872C19.6549 0.718872 25.252 6.31597 25.252 13.2189C25.252 20.1218 19.6549 25.7189 12.752 25.7189C5.84905 25.7189 0.251953 20.1218 0.251953 13.2189ZM2.37249 13.2189C2.37249 18.9499 7.02093 23.5983 12.752 23.5983C18.483 23.5983 23.1314 18.9499 23.1314 13.2189C23.1314 7.48785 18.483 2.83941 12.752 2.83941C7.02093 2.83941 2.37249 7.48785 2.37249 13.2189ZM13.6478 13.875L17.6266 16.7517C17.7271 16.8214 17.7494 16.9609 17.6768 17.0642L16.8788 18.1523C16.8063 18.25 16.6668 18.2723 16.5663 18.1998L11.9514 14.8348C11.8928 14.793 11.8593 14.726 11.8593 14.6535V6.96931C11.8593 6.84654 11.9598 6.74609 12.0825 6.74609H13.4246C13.5474 6.74609 13.6478 6.84654 13.6478 6.96931V13.875Z" fill="white"/>
</svg>
