<svg width="13" height="13" viewBox="0 0 13 13" fill="none" xmlns="http://www.w3.org/2000/svg">
<path fill-rule="evenodd" clip-rule="evenodd" d="M0.813934 6.63159C0.813934 3.3182 3.50054 0.631592 6.81393 0.631592C10.1273 0.631592 12.8139 3.3182 12.8139 6.63159C12.8139 9.94498 10.1273 12.6316 6.81393 12.6316C3.50054 12.6316 0.813934 9.94498 0.813934 6.63159ZM1.83179 6.63159C1.83179 9.38248 4.06304 11.6137 6.81393 11.6137C9.56483 11.6137 11.7961 9.38248 11.7961 6.63159C11.7961 3.8807 9.56483 1.64945 6.81393 1.64945C4.06304 1.64945 1.83179 3.8807 1.83179 6.63159ZM7.24395 6.94653L9.15377 8.32734C9.20198 8.36082 9.2127 8.42778 9.17788 8.47734L8.79484 8.99966C8.76002 9.04653 8.69305 9.05725 8.64484 9.02242L6.42966 7.40725C6.40154 7.38716 6.38547 7.35501 6.38547 7.32019V3.6318C6.38547 3.57287 6.43368 3.52466 6.49261 3.52466H7.13681C7.19573 3.52466 7.24395 3.57287 7.24395 3.6318V6.94653Z" fill="#7C86A2"/>
</svg>
