<svg width="14" height="15" viewBox="0 0 14 15" fill="none" xmlns="http://www.w3.org/2000/svg">
<path d="M2.33333 0.631531V6.85375H3.88889V5.2982H4.66667V3.74264H3.88889V2.18709H5.44444V3.74264H7V2.18709H8.55556V3.74264H10.1111V0.631531H2.33333ZM6.22222 5.2982V14.6315H7.77778V13.076H9.33333V14.6315H10.8889V13.076H12.4444V14.6315H14V5.2982H6.22222ZM7.77778 6.85375H9.33333V8.40931H7.77778V6.85375ZM10.8889 6.85375H12.4444V8.40931H10.8889V6.85375ZM0 8.40931V14.6315H1.55556V13.076H3.11111V14.6315H4.66667V8.40931H0ZM1.55556 9.96486H3.11111V11.5204H1.55556V9.96486ZM7.77778 9.96486H9.33333V11.5204H7.77778V9.96486ZM10.8889 9.96486H12.4444V11.5204H10.8889V9.96486Z" fill="white"/>
</svg>
