<svg width="39" height="33" viewBox="0 0 39 33" fill="none" xmlns="http://www.w3.org/2000/svg">
<g clip-path="url(#clip0_226:11751)">
<path d="M36.2269 6.89534C37.956 9.0251 38.8206 11.3446 38.8206 13.8539C38.8206 16.3633 37.956 18.6828 36.2269 20.8125C34.4978 22.9423 32.1361 24.6292 29.1629 25.8523C26.1897 27.0964 22.9423 27.7079 19.3997 27.7079C17.8182 27.7079 16.2789 27.5814 14.8239 27.3072C12.3146 29.8166 9.17271 31.4613 5.39819 32.2626C4.63907 32.4102 4.02756 32.4946 3.54256 32.5367C3.37387 32.5578 3.20518 32.5157 3.05757 32.4102C2.90996 32.3048 2.82562 32.1783 2.78344 32.0307C2.72018 31.8198 2.86779 31.5457 3.22626 31.2294C3.28952 31.1661 3.45822 30.9974 3.73234 30.7655C4.00647 30.5335 4.17516 30.3648 4.2806 30.2594C4.38603 30.1539 4.55472 29.9642 4.78668 29.7111C5.01863 29.437 5.20841 29.2261 5.31384 29.0364C5.41928 28.8466 5.56688 28.5724 5.75666 28.2351C5.94644 27.8977 6.09405 27.5392 6.19948 27.2018C6.30492 26.8644 6.41035 26.4427 6.51578 25.9577C6.62122 25.4727 6.70556 24.9455 6.78991 24.3762C4.68124 23.0688 3.0154 21.5084 1.81345 19.6739C0.611514 17.8815 0 15.9415 0 13.875C0 11.3657 0.864554 9.04618 2.59366 6.91643C4.32277 4.78668 6.68448 3.09974 9.6577 1.87671C12.652 0.611514 15.8994 0 19.4208 0C22.9423 0 26.1897 0.611514 29.184 1.85563C32.1572 3.07866 34.4978 4.76559 36.2269 6.89534ZM13.0527 15.8361C13.6009 15.2878 13.875 14.6342 13.875 13.875C13.875 13.1159 13.6009 12.4622 13.0527 11.914C12.5044 11.3657 11.8507 11.0916 11.0916 11.0916C10.3325 11.0916 9.67879 11.3657 9.13053 11.914C8.58228 12.4622 8.30815 13.1159 8.30815 13.875C8.30815 14.6342 8.58228 15.2878 9.13053 15.8361C9.67879 16.3843 10.3325 16.6585 11.0916 16.6585C11.8718 16.6374 12.5255 16.3633 13.0527 15.8361ZM21.3819 15.8361C21.9301 15.2878 22.2043 14.6342 22.2043 13.875C22.2043 13.1159 21.9301 12.4622 21.3819 11.914C20.8336 11.3657 20.18 11.0916 19.4208 11.0916C18.6617 11.0916 18.008 11.3657 17.4598 11.914C16.9115 12.4622 16.6374 13.1159 16.6374 13.875C16.6374 14.6342 16.9115 15.2878 17.4598 15.8361C18.008 16.3843 18.6617 16.6585 19.4208 16.6585C20.18 16.6374 20.8336 16.3633 21.3819 15.8361ZM29.7111 15.8361C30.2594 15.2878 30.5335 14.6342 30.5335 13.875C30.5335 13.1159 30.2594 12.4622 29.7111 11.914C29.1629 11.3657 28.5092 11.0916 27.7501 11.0916C26.991 11.0916 26.3373 11.3657 25.789 11.914C25.2408 12.4622 24.9666 13.1159 24.9666 13.875C24.9666 14.6342 25.2408 15.2878 25.789 15.8361C26.3373 16.3843 26.991 16.6585 27.7501 16.6585C28.5092 16.6585 29.1629 16.3633 29.7111 15.8361Z" fill="#187779"/>
</g>
<defs>
<clipPath id="clip0_226:11751">
<rect width="38.8417" height="32.6" fill="white"/>
</clipPath>
</defs>
</svg>
