<svg width="31" height="37" viewBox="0 0 31 37" fill="none" xmlns="http://www.w3.org/2000/svg">
<path d="M30.7048 4.8C31 5.1 31 5.4 31 5.7V35.1C31 35.4 31 35.7 30.7048 36C30.4095 36.3 30.1143 36 29.819 36H1.18095C0.885714 36 0.590476 36 0.295238 35.7C0 35.4 0 35.1 0 34.8V5.7C0 5.4 0 5.1 0.295238 4.8C0.590476 4.5 0.885714 4.5 1.18095 4.5H11.219C11.219 3.3 11.5143 2.1 12.4 1.2C13.2857 0.3 14.1714 0 15.6476 0C17.1238 0 17.7143 0.3 18.6 1.2C19.4857 2.1 19.781 3 19.781 4.5H29.819C30.1143 4.5 30.4095 4.5 30.7048 4.8ZM28.9333 6.9H24.5048V10.2C24.5048 10.5 24.5048 10.8 24.2095 11.1C23.9143 11.4 23.619 11.4 23.3238 11.4H7.67619C7.38095 11.4 7.08571 11.4 6.79048 11.1C6.49524 10.8 6.79048 10.5 6.79048 10.2V6.9H2.3619V33.9H28.9333V6.9ZM24.8 17.4L22.7333 15.3L13.2857 23.7L8.26667 19.8L6.2 21.9L13.2857 30.3L24.8 17.4ZM13.8762 3C13.581 3.3 13.2857 3.9 13.2857 4.5C13.2857 5.1 13.581 5.7 13.8762 6C14.1714 6.3 14.7619 6.9 15.6476 6.9C16.5333 6.9 16.5333 6.6 17.1238 6C17.7143 5.4 17.7143 5.1 17.7143 4.5C17.7143 3.9 17.419 3.3 17.1238 3C16.8286 2.7 16.2381 2.4 15.6476 2.4C15.0571 2.4 14.4667 2.4 13.8762 3Z" fill="#187779"/>
</svg>
