<svg width="48" height="36" viewBox="0 0 48 36" fill="none" xmlns="http://www.w3.org/2000/svg">
<path d="M8.62979 30.9157H2.86457V2.86847H25.1445V6.9904C25.1445 7.1657 25.2878 7.30912 25.4628 7.30912H27.6908C27.8659 7.30912 28.0091 7.1657 28.0091 6.9904V1.27488C28.0091 0.569708 27.4402 0 26.736 0H1.27315C0.568942 0 0 0.569708 0 1.27488V32.5093C0 33.2145 0.568942 33.7842 1.27315 33.7842H8.62979C8.80485 33.7842 8.94808 33.6407 8.94808 33.4655V31.2344C8.94808 31.0591 8.80485 30.9157 8.62979 30.9157Z" fill="#187779"/>
<path d="M13.8386 8.9858V10.925C13.8386 11.1027 13.6934 11.2481 13.516 11.2481H5.23135C5.05395 11.2481 4.90881 11.1027 4.90881 10.925V8.9858C4.90881 8.80804 5.05395 8.66261 5.23135 8.66261H13.516C13.6934 8.66261 13.8386 8.80804 13.8386 8.9858Z" fill="#187779"/>
<path d="M5.23135 17.0656C5.05395 17.0656 4.90881 16.9202 4.90881 16.7424V14.8033C4.90881 14.6255 5.05395 14.4801 5.23135 14.4801H18.692C18.8694 14.4801 19.0146 14.6255 19.0146 14.8033V16.7424C19.0146 16.9202 18.8694 17.0656 18.692 17.0656H5.23135Z" fill="#187779"/>
<path d="M5.23135 22.7983C5.05395 22.7983 4.90881 22.6529 4.90881 22.4751V20.5359C4.90881 20.3582 5.05395 20.2127 5.23135 20.2127H18.692C18.8694 20.2127 19.0146 20.3582 19.0146 20.5359V22.4751C19.0146 22.6529 18.8694 22.7983 18.692 22.7983H5.23135Z" fill="#187779"/>
<path d="M43.9317 7.5076C43.7056 7.50842 43.477 7.52836 43.2468 7.57044C42.5175 7.70161 41.8208 8.08191 41.2326 8.67094L26.5478 23.3547C26.2532 23.6492 26.0365 24.0165 25.921 24.4149L24.6254 28.9362C24.566 29.0929 24.539 29.2586 24.5448 29.4244C24.5555 29.7239 24.6732 30.02 24.9025 30.2494C25.1311 30.4779 25.4257 30.5956 25.7244 30.6071C25.8902 30.6129 26.0583 30.5868 26.2158 30.5265L30.7374 29.2311C31.1359 29.1156 31.5008 28.8996 31.7961 28.6043L46.4825 13.9205C47.0716 13.3323 47.4519 12.6357 47.5831 11.9064C47.6243 11.6762 47.6435 11.4477 47.6443 11.2216C47.6468 10.2366 47.267 9.30548 46.5566 8.59683C45.8479 7.88735 44.9168 7.50595 43.9317 7.5076Z" fill="#187779"/>
<path d="M37.7637 2.70677C37.5394 2.48638 37.1801 2.48585 36.9552 2.70558L27.1173 12.3186C26.8929 12.5379 26.5344 12.5379 26.31 12.3186L21.373 7.49228C21.1481 7.27246 20.7887 7.27295 20.5645 7.49338L19.1888 8.84555C18.9583 9.07217 18.9586 9.4439 19.1896 9.67007L26.3098 16.6411C26.5342 16.8608 26.8931 16.8609 27.1176 16.6413L39.1382 4.88354C39.3694 4.65741 39.3698 4.28553 39.1392 4.05883L37.7637 2.70677Z" fill="#187779"/>
<path d="M23.1026 30.5177C22.635 30.8795 21.8665 31.4519 21.0196 31.9932C20.3291 32.4346 19.5901 32.8504 18.9702 33.101C18.4919 33.2943 18.0905 33.3544 17.8867 33.3573C17.8166 33.3583 17.7785 33.2927 17.8013 33.2264C17.9154 32.8949 18.0958 32.37 17.9658 31.6737C17.8187 30.8862 17.2045 30.3684 16.5186 30.148C15.3525 29.7734 13.9815 30.0704 12.6814 30.3521L12.5064 30.39C11.6453 30.5758 10.8649 30.7866 10.4122 30.9151C10.1681 30.9844 10.0029 31.2079 10.0029 31.4617V32.8383C10.0029 33.2113 10.3507 33.4869 10.7141 33.4027C11.2294 33.2833 11.9532 33.118 12.6395 32.9699C13.7644 32.7273 15.1146 32.6211 15.5791 32.6645C15.6489 32.671 15.6856 32.7397 15.6628 32.806C15.5488 33.1375 15.3683 33.6623 15.4984 34.3586C15.6455 35.1462 16.2597 35.664 16.9455 35.8844C17.7912 36.1561 18.619 35.9067 19.4463 35.5724C20.2736 35.238 21.1104 34.7603 21.8774 34.2701C22.9192 33.6042 23.9758 32.7926 24.5465 32.3403C24.7891 32.148 24.8294 31.7987 24.6421 31.5522L23.9362 30.6233C23.7379 30.3623 23.3619 30.3171 23.1026 30.5177Z" fill="#187779"/>
</svg>
