<svg width="25" height="25" viewBox="0 0 25 25" fill="none" xmlns="http://www.w3.org/2000/svg">
<path d="M21.1231 11.641C20.9516 11.8128 20.8155 12.0167 20.7227 12.2412C20.6298 12.4657 20.582 12.7063 20.582 12.9493C20.582 13.1923 20.6298 13.4329 20.7227 13.6574C20.8155 13.8819 20.9516 14.0858 21.1231 14.2576C21.2924 14.4322 21.4956 14.5702 21.7201 14.6633C21.9446 14.7564 22.1858 14.8025 22.4287 14.7988C22.6715 14.8028 22.9126 14.7568 23.1369 14.6637C23.3613 14.5706 23.5643 14.4324 23.7332 14.2576C23.9047 14.0858 24.0408 13.8819 24.1337 13.6574C24.2265 13.4329 24.2743 13.1923 24.2743 12.9493C24.2743 12.7063 24.2265 12.4657 24.1337 12.2412C24.0408 12.0167 23.9047 11.8128 23.7332 11.641C23.564 11.4666 23.361 11.3286 23.1367 11.2355C22.9124 11.1424 22.6714 11.0963 22.4287 11.0998C22.1858 11.0961 21.9446 11.1422 21.7201 11.2353C21.4956 11.3284 21.2924 11.4664 21.1231 11.641ZM17.8272 4.11921C17.6089 4.33057 17.4362 4.58452 17.3197 4.86538C17.2032 5.14625 17.1453 5.44806 17.1498 5.75219C17.1453 6.05633 17.2032 6.35814 17.3197 6.639C17.4362 6.91987 17.6089 7.17382 17.8272 7.38518C18.0381 7.60391 18.2916 7.77699 18.5718 7.89375C18.8521 8.0105 19.1533 8.06845 19.4568 8.06401C19.7603 8.06864 20.0616 8.01078 20.3419 7.89401C20.6222 7.77724 20.8756 7.60406 21.0864 7.38518C21.305 7.17402 21.478 6.92013 21.5948 6.63924C21.7115 6.35834 21.7694 6.05643 21.7649 5.75219C21.7694 5.44796 21.7115 5.14604 21.5948 4.86515C21.478 4.58425 21.305 4.33036 21.0864 4.11921C20.8757 3.90019 20.6223 3.72684 20.342 3.6099C20.0617 3.49295 19.7604 3.4349 19.4568 3.43932C19.1532 3.43508 18.852 3.49322 18.5717 3.61016C18.2915 3.72709 18.0381 3.90034 17.8272 4.11921ZM18.1523 18.8392C17.8945 19.098 17.7191 19.4275 17.648 19.7861C17.577 20.1447 17.6135 20.5164 17.7531 20.8542C17.8927 21.192 18.129 21.4809 18.4322 21.6842C18.7354 21.8876 19.0919 21.9964 19.4568 21.9969C19.6992 21.9992 19.9395 21.9516 20.1628 21.8571C20.3861 21.7626 20.5877 21.6231 20.755 21.4473C21.0142 21.19 21.1912 20.8613 21.2634 20.503C21.3356 20.1446 21.2999 19.7728 21.1607 19.4349C21.0216 19.097 20.7852 18.8081 20.4818 18.6051C20.1784 18.4021 19.8216 18.2941 19.4568 18.2949C19.2138 18.2917 18.9728 18.3384 18.7484 18.432C18.5241 18.5256 18.3212 18.6641 18.1523 18.8392ZM10.3136 0.809106C10.0521 1.06413 9.84551 1.37017 9.70663 1.70833C9.56775 2.04649 9.49952 2.40959 9.50616 2.7752C9.49948 3.14067 9.56769 3.50362 9.70658 3.84162C9.84546 4.17961 10.0521 4.48546 10.3136 4.74025C10.8354 5.25855 11.5404 5.54935 12.2751 5.54935C13.0098 5.54935 13.7148 5.25855 14.2366 4.74025C14.4984 4.48549 14.7052 4.17969 14.8445 3.84173C14.9837 3.50376 15.0523 3.14079 15.0462 2.7752C15.0524 2.40946 14.9837 2.04632 14.8445 1.70818C14.7053 1.37004 14.4984 1.06406 14.2366 0.809106C13.7148 0.290799 13.0098 0 12.2751 0C11.5404 0 10.8354 0.290799 10.3136 0.809106ZM10.969 21.8162C10.7919 21.9865 10.6504 22.1906 10.553 22.4164C10.4555 22.6423 10.404 22.8853 10.4015 23.1313C10.3989 23.3774 10.4454 23.6214 10.5381 23.8493C10.6309 24.0771 10.7681 24.284 10.9417 24.458C11.1152 24.6321 11.3217 24.7696 11.549 24.8627C11.7763 24.9557 12.0199 25.0024 12.2654 24.9999C12.5109 24.9975 12.7535 24.9459 12.9789 24.8484C13.2043 24.7508 13.408 24.6091 13.5781 24.4317C13.9242 24.0847 14.1186 23.6142 14.1185 23.1236C14.1184 22.8806 14.0706 22.6401 13.9778 22.4157C13.885 22.1913 13.749 21.9874 13.5775 21.8157C13.4061 21.6439 13.2026 21.5077 12.9786 21.4148C12.7546 21.3219 12.5146 21.2741 12.2721 21.2741C11.7825 21.2742 11.3131 21.4692 10.9669 21.8162H10.969ZM1.8615 5.75219C1.85476 6.17908 1.93583 6.60279 2.09965 6.99691C2.26346 7.39103 2.50652 7.74712 2.81367 8.04299C3.26533 8.49539 3.84076 8.80337 4.46714 8.92795C5.09352 9.05254 5.74271 8.98813 6.33255 8.74289C6.92239 8.49764 7.42638 8.08258 7.78074 7.55021C8.13511 7.01785 8.32392 6.39212 8.32329 5.75219C8.32923 5.32727 8.24859 4.90559 8.08632 4.51297C7.92404 4.12035 7.68353 3.76503 7.3795 3.46875C7.08084 3.1665 6.72535 2.92658 6.3336 2.76284C5.94184 2.5991 5.52158 2.51479 5.09711 2.51479C4.67264 2.51479 4.25238 2.5991 3.86063 2.76284C3.46887 2.92658 3.11339 3.1665 2.81472 3.46875C2.50859 3.76391 2.26607 4.11881 2.10212 4.51155C1.93818 4.90428 1.85628 5.32651 1.8615 5.75219ZM3.24677 20.1485C3.24676 20.5764 3.39484 20.9911 3.66575 21.3219C3.93667 21.6526 4.31367 21.879 4.7325 21.9625C5.15133 22.0459 5.58607 21.9813 5.96265 21.7795C6.33922 21.5777 6.63433 21.2513 6.79766 20.856C6.961 20.4606 6.98247 20.0207 6.85841 19.6112C6.73436 19.2018 6.47244 18.8481 6.11732 18.6105C5.76219 18.3728 5.33581 18.266 4.91086 18.308C4.4859 18.3501 4.08866 18.5386 3.78682 18.8413C3.61258 19.0103 3.47476 19.2133 3.38187 19.4378C3.28898 19.6623 3.243 19.9034 3.24677 20.1464V20.1485ZM0.815996 11.6431C0.513685 11.9457 0.325426 12.3439 0.283295 12.77C0.241163 13.196 0.347769 13.6236 0.584946 13.9797C0.822123 14.3358 1.1752 14.5985 1.584 14.723C1.9928 14.8475 2.43203 14.8261 2.82685 14.6624C3.22166 14.4988 3.54763 14.203 3.74921 13.8255C3.95078 13.448 4.01549 13.0121 3.9323 12.5922C3.84912 12.1722 3.62318 11.7942 3.293 11.5224C2.96282 11.2507 2.54883 11.1021 2.12156 11.102C1.87878 11.098 1.63775 11.1437 1.41325 11.2364C1.18874 11.3291 0.985506 11.4668 0.815996 11.641V11.6431Z" fill="#B8B8B8"/>
</svg>
