<svg width="36" height="38" viewBox="0 0 36 38" fill="none" xmlns="http://www.w3.org/2000/svg">
<path d="M31.2732 17.6453C31.0159 17.9057 30.8118 18.2148 30.6725 18.5551C30.5333 18.8954 30.4616 19.2601 30.4616 19.6284C30.4616 19.9967 30.5333 20.3615 30.6725 20.7017C30.8118 21.042 31.0159 21.3511 31.2732 21.6115C31.5272 21.8761 31.832 22.0854 32.1687 22.2265C32.5055 22.3676 32.8672 22.4374 33.2316 22.4318C33.5958 22.4379 33.9574 22.3682 34.294 22.2271C34.6305 22.086 34.935 21.8765 35.1884 21.6115C35.4457 21.3511 35.6498 21.042 35.7891 20.7017C35.9283 20.3615 36 19.9967 36 19.6284C36 19.2601 35.9283 18.8954 35.7891 18.5551C35.6498 18.2148 35.4457 17.9057 35.1884 17.6453C34.9346 17.3809 34.6301 17.1717 34.2936 17.0307C33.9571 16.8896 33.5957 16.8196 33.2316 16.825C32.8672 16.8194 32.5055 16.8893 32.1687 17.0303C31.832 17.1714 31.5272 17.3807 31.2732 17.6453ZM26.3294 6.24385C26.002 6.56423 25.7429 6.94917 25.5681 7.3749C25.3933 7.80063 25.3066 8.25811 25.3132 8.71911C25.3066 9.18011 25.3933 9.6376 25.5681 10.0633C25.7429 10.4891 26.002 10.874 26.3294 11.1944C26.6458 11.5259 27.0259 11.7883 27.4463 11.9653C27.8667 12.1422 28.3185 12.2301 28.7738 12.2233C29.2291 12.2304 29.6809 12.1426 30.1014 11.9657C30.5219 11.7887 30.902 11.5261 31.2182 11.1944C31.5461 10.8743 31.8056 10.4895 31.9807 10.0637C32.1558 9.63791 32.2426 9.18027 32.2359 8.71911C32.2426 8.25796 32.1558 7.80032 31.9807 7.37454C31.8056 6.94876 31.5461 6.56392 31.2182 6.24385C30.902 5.91186 30.522 5.64911 30.1015 5.47184C29.6811 5.29458 29.2292 5.20658 28.7738 5.21329C28.3184 5.20686 27.8666 5.29499 27.4462 5.47224C27.0258 5.64949 26.6457 5.91209 26.3294 6.24385ZM26.817 28.5562C26.4304 28.9485 26.1672 29.448 26.0606 29.9916C25.954 30.5352 26.0089 31.0985 26.2182 31.6106C26.4276 32.1227 26.782 32.5605 27.2368 32.8687C27.6917 33.177 28.2265 33.3419 28.7738 33.3427C29.1374 33.3462 29.4978 33.274 29.8328 33.1307C30.1678 32.9875 30.4701 32.7761 30.7211 32.5096C31.1099 32.1196 31.3753 31.6214 31.4836 31.0782C31.592 30.535 31.5384 29.9715 31.3297 29.4592C31.1209 28.947 30.7664 28.5092 30.3113 28.2015C29.8562 27.8938 29.321 27.73 28.7738 27.7311C28.4093 27.7264 28.0477 27.7971 27.7112 27.939C27.3747 28.0809 27.0704 28.2909 26.817 28.5562ZM15.059 1.22643C14.6667 1.61299 14.3568 2.07689 14.1485 2.58947C13.9402 3.10204 13.8378 3.65242 13.8478 4.20662C13.8378 4.76059 13.9401 5.31075 14.1484 5.82308C14.3568 6.33541 14.6667 6.79901 15.059 7.18522C15.8417 7.97086 16.8992 8.41165 18.0012 8.41165C19.1033 8.41165 20.1608 7.97086 20.9435 7.18522C21.3361 6.79906 21.6464 6.33553 21.8552 5.82325C22.0641 5.31096 22.1671 4.76077 22.1578 4.20662C22.1671 3.65223 22.0641 3.1018 21.8553 2.58925C21.6465 2.0767 21.3361 1.61289 20.9435 1.22643C20.1608 0.440791 19.1033 0 18.0012 0C16.8992 0 15.8417 0.440791 15.059 1.22643ZM16.0421 33.0687C15.7764 33.327 15.5642 33.6363 15.418 33.9786C15.2718 34.3209 15.1946 34.6893 15.1907 35.0623C15.1869 35.4352 15.2566 35.8051 15.3958 36.1504C15.5349 36.4958 15.7407 36.8095 16.0011 37.0732C16.2614 37.337 16.5712 37.5455 16.9121 37.6866C17.2531 37.8276 17.6184 37.8983 17.9867 37.8946C18.3549 37.8909 18.7188 37.8128 19.0569 37.6649C19.395 37.517 19.7005 37.3023 19.9557 37.0333C20.4749 36.5073 20.7664 35.7941 20.7663 35.0504C20.7662 34.6822 20.6945 34.3176 20.5553 33.9775C20.4161 33.6373 20.2121 33.3282 19.9549 33.0679C19.6977 32.8076 19.3924 32.6011 19.0564 32.4603C18.7205 32.3195 18.3604 32.247 17.9968 32.2471C17.2624 32.2472 16.5581 32.5428 16.039 33.0687H16.0421ZM2.38081 8.71911C2.37071 9.36619 2.49231 10.0084 2.73803 10.6058C2.98376 11.2032 3.34834 11.743 3.80907 12.1915C4.48656 12.8772 5.3497 13.3441 6.28927 13.5329C7.22884 13.7217 8.20262 13.6241 9.08738 13.2524C9.97215 12.8806 10.7281 12.2515 11.2597 11.4445C11.7912 10.6376 12.0744 9.68911 12.0735 8.71911C12.0824 8.07502 11.9615 7.43585 11.718 6.84071C11.4746 6.24558 11.1139 5.70698 10.6578 5.25789C10.2098 4.79975 9.67659 4.43608 9.08895 4.18788C8.50132 3.93968 7.87093 3.81189 7.23423 3.81189C6.59753 3.81189 5.96714 3.93968 5.3795 4.18788C4.79187 4.43608 4.25864 4.79975 3.81065 5.25789C3.35145 5.7053 2.98766 6.24325 2.74174 6.83855C2.49582 7.43386 2.37299 8.07387 2.38081 8.71911ZM4.45871 30.5409C4.45871 31.1895 4.68082 31.8181 5.08719 32.3195C5.49357 32.8208 6.05906 33.164 6.6873 33.2905C7.31555 33.417 7.96767 33.3189 8.53253 33.0131C9.09739 32.7073 9.54005 32.2125 9.78506 31.6132C10.0301 31.0139 10.0623 30.3471 9.87618 29.7265C9.69009 29.1058 9.29723 28.5697 8.76453 28.2095C8.23184 27.8493 7.59228 27.6873 6.95485 27.7511C6.31741 27.8149 5.72155 28.1006 5.2688 28.5594C5.00743 28.8156 4.8007 29.1233 4.66137 29.4636C4.52204 29.8038 4.45307 30.1694 4.45871 30.5377V30.5409ZM0.812557 17.6485C0.359089 18.1071 0.0766983 18.7108 0.013504 19.3566C-0.0496941 20.0024 0.110214 20.6505 0.465981 21.1903C0.821747 21.7301 1.35136 22.1283 1.96456 22.317C2.57775 22.5057 3.2366 22.4732 3.82883 22.2252C4.42105 21.9771 4.91001 21.5288 5.21237 20.9565C5.51473 20.3843 5.6118 19.7236 5.48701 19.0871C5.36223 18.4505 5.02333 17.8775 4.52806 17.4656C4.03279 17.0537 3.4118 16.8284 2.77091 16.8282C2.40674 16.8222 2.04519 16.8916 1.70843 17.0321C1.37168 17.1726 1.06682 17.3813 0.812557 17.6453V17.6485Z" fill="#187779"/>
</svg>
