<svg width="26" height="27" viewBox="0 0 26 27" fill="none" xmlns="http://www.w3.org/2000/svg">
<path d="M2.8077 24.0425H6.04806C6.17323 24.0425 6.27564 24.1528 6.27564 24.2877V26.0047C6.27564 26.1396 6.17323 26.25 6.04806 26.25H1.66982C1.16632 26.25 0.759521 25.8116 0.759521 25.2689V1.23113C0.759521 0.688443 1.16632 0.25 1.66982 0.25H19.8758C20.3793 0.25 20.7861 0.688443 20.7861 1.23113V7.27561C20.7861 7.41051 20.6837 7.52089 20.5585 7.52089H18.9655C18.8403 7.52089 18.7379 7.41051 18.7379 7.27561V2.45755H2.8077V24.0425Z" fill="white"/>
<path d="M5.65808 4.6992C5.54776 4.6992 5.45751 4.79676 5.45751 4.91599V6.21674C5.45751 6.33597 5.54776 6.43353 5.65808 6.43353H15.2857C15.396 6.43353 15.4863 6.33597 15.4863 6.21674V4.91599C15.4863 4.79676 15.396 4.6992 15.2857 4.6992H5.65808Z" fill="white"/>
<path d="M5.45751 8.23068C5.45751 8.11144 5.54776 8.01389 5.65808 8.01389H15.2857C15.396 8.01389 15.4863 8.11144 15.4863 8.23068V9.53142C15.4863 9.65066 15.396 9.74821 15.2857 9.74821H5.65808C5.54776 9.74821 5.45751 9.65066 5.45751 9.53142V8.23068Z" fill="white"/>
<path d="M10.6916 11.8056C10.5813 11.8056 10.4911 11.9031 10.4911 12.0223V13.3231C10.4911 13.4423 10.5813 13.5399 10.6916 13.5399H15.2857C15.396 13.5399 15.4863 13.4423 15.4863 13.3231V12.0223C15.4863 11.9031 15.396 11.8056 15.2857 11.8056H10.6916Z" fill="white"/>
<path d="M23.4801 9.99845C23.6976 9.75927 24.0451 9.75984 24.262 9.99975L25.5925 11.4715C25.8156 11.7183 25.8151 12.1231 25.5915 12.3692L13.9647 25.168C13.7476 25.407 13.4004 25.407 13.1834 25.1678L6.29646 17.5796C6.07302 17.3334 6.07267 16.9287 6.29567 16.682L7.62626 15.2102C7.84318 14.9702 8.19081 14.9697 8.4083 15.209L13.1836 20.4625C13.4006 20.7013 13.7474 20.7013 13.9644 20.4626L23.4801 9.99845Z" fill="white"/>
</svg>
