<svg width="26" height="27" viewBox="0 0 26 27" fill="none" xmlns="http://www.w3.org/2000/svg">
<path d="M2.80776 24.0425H6.04812C6.17329 24.0425 6.2757 24.1528 6.2757 24.2877V26.0047C6.2757 26.1396 6.17329 26.25 6.04812 26.25H1.66988C1.16638 26.25 0.759583 25.8116 0.759583 25.2689V1.23113C0.759583 0.688443 1.16638 0.25 1.66988 0.25H19.8759C20.3794 0.25 20.7861 0.688443 20.7861 1.23113V7.27561C20.7861 7.41051 20.6837 7.52089 20.5586 7.52089H18.9656C18.8404 7.52089 18.738 7.41051 18.738 7.27561V2.45755H2.80776V24.0425Z" fill="#B8B8B8"/>
<path d="M5.65814 4.6992C5.54782 4.6992 5.45757 4.79676 5.45757 4.91599V6.21674C5.45757 6.33597 5.54782 6.43353 5.65814 6.43353H15.2857C15.3961 6.43353 15.4863 6.33597 15.4863 6.21674V4.91599C15.4863 4.79676 15.3961 4.6992 15.2857 4.6992H5.65814Z" fill="#B8B8B8"/>
<path d="M5.45757 8.23068C5.45757 8.11144 5.54782 8.01389 5.65814 8.01389H15.2857C15.3961 8.01389 15.4863 8.11144 15.4863 8.23068V9.53142C15.4863 9.65066 15.3961 9.74821 15.2857 9.74821H5.65814C5.54782 9.74821 5.45757 9.65066 5.45757 9.53142V8.23068Z" fill="#B8B8B8"/>
<path d="M10.6917 11.8056C10.5814 11.8056 10.4911 11.9031 10.4911 12.0223V13.3231C10.4911 13.4423 10.5814 13.5399 10.6917 13.5399H15.2857C15.3961 13.5399 15.4863 13.4423 15.4863 13.3231V12.0223C15.4863 11.9031 15.3961 11.8056 15.2857 11.8056H10.6917Z" fill="#B8B8B8"/>
<path d="M23.4801 9.99845C23.6976 9.75927 24.0452 9.75984 24.2621 9.99975L25.5926 11.4715C25.8156 11.7183 25.8152 12.1231 25.5916 12.3692L13.9648 25.168C13.7476 25.407 13.4005 25.407 13.1834 25.1678L6.29652 17.5796C6.07309 17.3334 6.07273 16.9287 6.29573 16.682L7.62632 15.2102C7.84324 14.9702 8.19087 14.9697 8.40836 15.209L13.1836 20.4625C13.4007 20.7013 13.7474 20.7013 13.9645 20.4626L23.4801 9.99845Z" fill="#B8B8B8"/>
</svg>
