<svg width="40" height="40" viewBox="0 0 40 40" fill="none" xmlns="http://www.w3.org/2000/svg">
<path d="M0 20C0 8.95431 8.95431 0 20 0V0C31.0457 0 40 8.95431 40 20V20C40 31.0457 31.0457 40 20 40V40C8.95431 40 0 31.0457 0 20V20Z" fill="white"/>
<path d="M32.8571 11.4286H29.6429V15.1786C30.5664 15.1786 31.1161 16.0218 31.1161 17.1168C31.1161 17.6632 30.8139 18.2353 30.8139 18.2353C30.8139 18.2353 30.9821 18.2921 30.9821 18.6682C30.9821 19.2103 30.5439 19.5136 30.5439 19.5136C30.4829 20.0546 29.6429 20.8453 29.6429 20.8453V21.7475C30.0939 23.1007 32.8571 22.1986 32.8571 25.3561H29.6429V28.5703H32.8571C34.0411 28.5703 35 27.6114 35 26.4275V13.5714C35 12.3875 34.0411 11.4286 32.8571 11.4286ZM25.3571 9.28571H14.6429C13.4589 9.28571 12.5 10.2446 12.5 11.4286V28.5714C12.5 29.7553 13.4589 30.7143 14.6429 30.7143H25.3571C26.5411 30.7143 27.5 29.7553 27.5 28.5714V11.4286C27.5 10.2446 26.5411 9.28571 25.3571 9.28571ZM15.7143 25.3571C15.7143 22.2093 18.4775 23.1018 18.9286 21.7486V20.8464C18.9286 20.8464 18.0886 20.0546 18.0275 19.5146C18.0275 19.5146 17.5893 19.3507 17.5893 18.6693C17.5893 18.3178 17.7575 18.2364 17.7575 18.2364C17.7575 18.2364 17.3889 17.7243 17.3889 17.0675C17.3879 15.5118 18.5579 14.6428 20 14.6428C20.6793 14.6428 21.0714 15.1786 21.0714 15.1786C21.995 15.1786 22.5446 16.0218 22.5446 17.1168C22.5446 17.6632 22.2425 18.2353 22.2425 18.2353C22.2425 18.2353 22.4107 18.2921 22.4107 18.6682C22.4107 19.2103 21.9725 19.5136 21.9725 19.5136C21.9114 20.0546 21.0714 20.8453 21.0714 20.8453V21.7475C21.5225 23.1007 24.2857 22.1986 24.2857 25.3561L15.7143 25.3571ZM7.14286 25.3571C7.14286 22.2093 9.90607 23.1018 10.3571 21.7486V20.8464C10.3571 20.8464 9.51714 20.0546 9.45607 19.5146C9.45607 19.5146 9.01786 19.3507 9.01786 18.6693C9.01786 18.3178 9.18607 18.2364 9.18607 18.2364C9.18607 18.2364 8.8175 17.7243 8.8175 17.0675C8.8175 15.9253 9.45071 15.1582 10.3582 14.8282V11.4286H7.14286C5.95893 11.4286 5 12.3875 5 13.5714V26.4286C5 27.6125 5.95893 28.5714 7.14286 28.5714H10.3571V25.3571H7.14286Z" fill="#187779"/>
</svg>
