<svg width="20" height="20" viewBox="0 0 20 20" fill="none" xmlns="http://www.w3.org/2000/svg">
<path d="M15.6308 5.73129L14.0677 4.16821C13.9288 4.02927 13.8226 3.99646 13.7493 4.06979L9.89951 7.9196L6.05482 4.07491C5.97808 3.99817 5.87024 4.02927 5.7313 4.16821L4.16822 5.73129C4.02928 5.87023 3.99818 5.97807 4.07492 6.05481L7.91961 9.89949L4.0698 13.7493C3.99647 13.8226 4.02928 13.9288 4.16822 14.0677L5.7313 15.6308C5.87024 15.7697 5.97637 15.8025 6.0497 15.7292L9.89951 11.8794L13.7442 15.7241C13.8209 15.8008 13.9288 15.7697 14.0677 15.6308L15.6308 14.0677C15.7697 13.9288 15.8008 13.8209 15.7241 13.7442L11.8794 9.89949L15.7292 6.04969C15.8025 5.97636 15.7697 5.87023 15.6308 5.73129Z" fill="black"/>
</svg>
