<svg width="18" height="18" viewBox="0 0 18 18" fill="none" xmlns="http://www.w3.org/2000/svg">
<rect width="18" height="18" rx="9" fill="#0EACAF"/>
<path d="M12.3343 7.03846C12.2671 7.03846 12.2056 7.06797 12.1497 7.1211L9 10.4504L5.85035 7.127C5.79441 7.06797 5.73287 7.04436 5.66573 7.04436C5.5986 7.04436 5.53706 7.07387 5.48112 7.127L5.07832 7.55201C5.02238 7.61104 5 7.67598 5 7.74681C5 7.81765 5.02797 7.88258 5.07832 7.94161L8.81538 11.8789C8.87133 11.9379 8.93287 11.9615 9 11.9615C9.06713 11.9615 9.12867 11.932 9.18462 11.8789L12.9217 7.93571C12.9776 7.87668 13 7.81174 13 7.74091C13 7.67007 12.972 7.60514 12.9217 7.54611L12.5189 7.1211C12.4685 7.06797 12.407 7.03846 12.3343 7.03846Z" fill="white"/>
<rect x="0.25" y="0.25" width="17.5" height="17.5" rx="8.75" stroke="black" stroke-opacity="0.3" stroke-width="0.5"/>
</svg>
