<svg width="36" height="36" viewBox="0 0 36 36" fill="none" xmlns="http://www.w3.org/2000/svg">
<path fill-rule="evenodd" clip-rule="evenodd" d="M27.0306 0.377679L35.6246 9.02411C35.8642 9.26518 36 9.59464 36 9.93616V34.7143C36 35.4254 35.4289 36 34.7221 36H9.1637C8.45686 36 7.88579 35.4254 7.88579 34.7143V30.566H10.7611V33.1071H33.1247V13.2589H24.4987C24.0539 13.2589 23.6273 13.0811 23.3127 12.7647C22.9982 12.4482 22.8215 12.019 22.8215 11.5714V2.89286H10.7611V5.43396H7.88579V1.28571C7.88579 0.574553 8.45686 0 9.1637 0H26.1281C26.4675 0 26.791 0.136607 27.0306 0.377679ZM25.537 10.5268H33.0528L25.537 2.96518V10.5268Z" fill="#187779"/>
<path d="M12.923 20.3774H4.21973C4.00989 20.3774 3.80865 20.27 3.66027 20.0789C3.51189 19.8879 3.42853 19.6287 3.42853 19.3585C3.42853 19.0883 3.51189 18.8291 3.66027 18.638C3.80865 18.447 4.00989 18.3396 4.21973 18.3396H12.923C13.1328 18.3396 13.3341 18.447 13.4825 18.638C13.6309 18.8291 13.7142 19.0883 13.7142 19.3585C13.7142 19.6287 13.6309 19.8879 13.4825 20.0789C13.3341 20.27 13.1328 20.3774 12.923 20.3774Z" fill="#187779"/>
<path d="M13.654 23.044C13.6938 23.1676 13.7142 23.3002 13.7142 23.434C13.7142 23.5678 13.6938 23.7003 13.654 23.8239C13.6143 23.9475 13.556 24.0599 13.4825 24.1545C13.4091 24.2491 13.3218 24.3242 13.2258 24.3753C13.1298 24.4265 13.0269 24.4529 12.923 24.4528H4.21973C4.00989 24.4528 3.80865 24.3455 3.66027 24.1544C3.51189 23.9633 3.42853 23.7042 3.42853 23.434C3.42853 23.1637 3.51189 22.9046 3.66027 22.7135C3.80865 22.5224 4.00989 22.4151 4.21973 22.4151H12.923C13.0269 22.4151 13.1298 22.4414 13.2258 22.4926C13.3218 22.5438 13.4091 22.6188 13.4825 22.7134C13.556 22.8081 13.6143 22.9204 13.654 23.044Z" fill="#187779"/>
<path fill-rule="evenodd" clip-rule="evenodd" d="M16.8424 12.617L12.1074 7.7798C11.9156 7.58314 11.6567 7.4717 11.3851 7.4717H1.02269C0.456994 7.4717 -3.5897e-05 7.94041 -3.5897e-05 8.52057V27.4794C-3.5897e-05 28.0596 0.456994 28.5283 1.02269 28.5283H16.1201C16.6857 28.5283 17.1428 28.0596 17.1428 27.4794V13.361C17.1428 13.0824 17.0341 12.8136 16.8424 12.617ZM14.7841 13.8429H10.9121V9.89066L14.7841 13.8429ZM14.8416 26.1683H2.30109V9.83166H8.73878V14.6951C8.73878 15.0602 8.8802 15.4103 9.13194 15.6685C9.38367 15.9267 9.7251 16.0717 10.0811 16.0717H14.8416V26.1683Z" fill="#187779"/>
<path d="M20.4396 17.6604H30.3033C30.5411 17.6604 30.7692 17.553 30.9374 17.362C31.1055 17.1709 31.2 16.9117 31.2 16.6415C31.2 16.3713 31.1055 16.1121 30.9374 15.9211C30.7692 15.73 30.5411 15.6226 30.3033 15.6226H20.4396C20.2018 15.6226 19.9737 15.73 19.8055 15.9211C19.6374 16.1121 19.5429 16.3713 19.5429 16.6415C19.5429 16.9117 19.6374 17.1709 19.8055 17.362C19.9737 17.553 20.2018 17.6604 20.4396 17.6604Z" fill="#187779"/>
<path d="M31.2 22.0755C31.2 21.9417 31.1769 21.8092 31.1318 21.6855C31.0868 21.5619 31.0207 21.4496 30.9374 21.3549C30.8542 21.2603 30.7553 21.1853 30.6465 21.1341C30.5377 21.0829 30.4211 21.0566 30.3033 21.0566H20.4396C20.2018 21.0566 19.9737 21.1639 19.8055 21.355C19.6374 21.5461 19.5429 21.8053 19.5429 22.0755C19.5429 22.3457 19.6374 22.6048 19.8055 22.7959C19.9737 22.987 20.2018 23.0943 20.4396 23.0943H30.3033C30.4211 23.0944 30.5377 23.068 30.6465 23.0169C30.7553 22.9657 30.8542 22.8906 30.9374 22.796C31.0207 22.7014 31.0868 22.589 31.1318 22.4654C31.1769 22.3418 31.2 22.2093 31.2 22.0755Z" fill="#187779"/>
<path d="M31.2 27.5094C31.2 27.3756 31.1769 27.2431 31.1318 27.1195C31.0868 26.9959 31.0207 26.8835 30.9374 26.7889C30.8542 26.6943 30.7553 26.6192 30.6465 26.5681C30.5377 26.5169 30.4211 26.4905 30.3033 26.4906H20.4396C20.2018 26.4906 19.9737 26.5979 19.8055 26.789C19.6374 26.9801 19.5429 27.2392 19.5429 27.5094C19.5429 27.7797 19.6374 28.0388 19.8055 28.2299C19.9737 28.421 20.2018 28.5283 20.4396 28.5283H30.3033C30.4211 28.5283 30.5377 28.502 30.6465 28.4508C30.7553 28.3996 30.8542 28.3246 30.9374 28.23C31.0207 28.1353 31.0868 28.023 31.1318 27.8994C31.1769 27.7757 31.2 27.6432 31.2 27.5094Z" fill="#187779"/>
</svg>
