<svg width="19" height="19" viewBox="0 0 19 19" fill="none" xmlns="http://www.w3.org/2000/svg">
<path d="M16.6099 14.1047H15.1385C15.038 14.1047 14.9438 14.1486 14.881 14.2261C14.7345 14.404 14.5775 14.5756 14.4122 14.7388C13.7359 15.4158 12.9349 15.9553 12.0534 16.3274C11.1401 16.7132 10.1585 16.9111 9.16709 16.9093C8.16453 16.9093 7.19337 16.7126 6.28081 16.3274C5.39929 15.9553 4.59825 15.4158 3.92198 14.7388C3.2445 14.0642 2.7043 13.2645 2.33128 12.3842C1.94408 11.4716 1.74942 10.5026 1.74942 9.50002C1.74942 8.49746 1.94617 7.52839 2.33128 6.61584C2.70384 5.73467 3.23965 4.94142 3.92198 4.26119C4.6043 3.58096 5.39756 3.04514 6.28081 2.67259C7.19337 2.28747 8.16453 2.09073 9.16709 2.09073C10.1696 2.09073 11.1408 2.28538 12.0534 2.67259C12.9366 3.04514 13.7299 3.58096 14.4122 4.26119C14.5775 4.42654 14.7324 4.59816 14.881 4.77398C14.9438 4.85142 15.0401 4.89537 15.1385 4.89537H16.6099C16.7417 4.89537 16.8234 4.74886 16.7501 4.63793C15.1447 2.14305 12.3359 0.49166 9.14406 0.500032C4.12919 0.51259 0.108497 4.58351 0.15873 9.59211C0.208962 14.5212 4.22337 18.5 9.16709 18.5C12.3506 18.5 15.1468 16.8507 16.7501 14.3621C16.8213 14.2512 16.7417 14.1047 16.6099 14.1047ZM18.4706 9.36816L15.5006 7.02397C15.3896 6.93607 15.2285 7.0156 15.2285 7.15583V8.74653H8.65639C8.5643 8.74653 8.48895 8.82188 8.48895 8.91397V10.0861C8.48895 10.1782 8.5643 10.2535 8.65639 10.2535H15.2285V11.8442C15.2285 11.9844 15.3917 12.064 15.5006 11.9761L18.4706 9.63188C18.4906 9.61621 18.5068 9.5962 18.5179 9.57335C18.529 9.55051 18.5348 9.52543 18.5348 9.50002C18.5348 9.4746 18.529 9.44952 18.5179 9.42668C18.5068 9.40383 18.4906 9.38382 18.4706 9.36816Z" fill="white"/>
</svg>
