<svg width="34" height="31" viewBox="0 0 34 31" fill="none" xmlns="http://www.w3.org/2000/svg">
<path d="M6.8 23.25C5.95 23.25 5.1 22.963 4.25 22.6759C3.4 22.1019 2.55 21.8148 1.98333 20.9537C1.41667 20.0926 0.85 19.8056 0.566667 18.9444C0.283333 18.0833 0 16.9352 0 16.0741V14.9259C0 14.0648 0.283333 12.9167 0.566667 12.3426C0.85 11.4815 1.41667 10.6204 1.98333 10.0463C2.55 9.47222 3.4 8.89815 4.25 8.61111C5.1 8.32407 5.95 8.03704 6.8 8.03704H26.9167C27.7667 8.03704 28.9 8.32407 29.4667 8.61111C30.0333 8.89815 31.1667 9.47222 31.7333 10.0463C32.3 10.6204 32.8667 11.4815 33.15 12.3426C33.7167 12.9167 34 14.0648 34 14.9259V16.0741C34 16.9352 33.7167 18.0833 33.4333 18.6574C33.15 19.5185 32.5833 20.3796 32.0167 20.9537C31.45 21.5278 30.6 22.1019 29.75 22.3889C28.9 22.963 28.05 23.25 27.2 23.25H6.8ZM15.3 4.01852V1.43519C15.3 1.14815 15.0167 0.574074 14.7333 0.287037C14.45 0 14.1667 0 13.8833 0H5.1C4.53333 0 4.25 0.287037 3.96667 0.574074C3.68333 0.861111 3.4 1.14815 3.4 1.43519V3.73148C3.4 4.01852 3.4 4.30556 3.68333 4.59259C3.96667 4.87963 4.25 4.87963 4.53333 4.87963C6.23333 4.59259 7.65 4.30556 9.35 4.30556C11.05 4.30556 12.4667 4.59259 14.1667 4.87963C14.45 4.87963 14.7333 4.87963 15.0167 4.59259C15.3 4.30556 15.3 4.30556 15.3 4.01852ZM14.1667 26.1204C12.4667 26.4074 11.05 26.4074 9.35 26.4074C7.65 26.4074 6.23333 26.4074 4.53333 26.1204C4.25 26.1204 3.96667 26.1204 3.68333 26.4074C3.4 26.6944 3.4 26.6944 3.4 26.9815V29.2778C3.4 29.5648 3.68333 30.1389 3.96667 30.4259C4.25 30.713 4.53333 31 5.1 31H13.8833C14.1667 31 14.7333 30.713 15.0167 30.4259C15.3 30.1389 15.5833 29.8519 15.5833 29.2778V26.9815C15.5833 26.6944 15.5833 26.4074 15.3 26.1204C15.0167 25.8333 14.45 26.1204 14.1667 26.1204ZM30.6 1.43519C30.6 1.14815 30.3167 0.574074 30.0333 0.287037C29.75 0 29.4667 0 28.9 0H20.1167C19.8333 0 19.55 0.287037 19.2667 0.574074C18.9833 0.861111 18.7 1.14815 18.7 1.43519V3.73148C18.7 4.01852 18.7 4.30556 18.9833 4.59259C19.2667 4.87963 19.55 4.87963 19.8333 4.87963C21.5333 4.59259 22.95 4.30556 24.65 4.30556C26.35 4.30556 27.7667 4.59259 29.4667 4.87963C29.75 4.87963 30.0333 4.87963 30.3167 4.59259C30.6 4.30556 30.6 4.01852 30.6 3.73148V1.43519ZM29.4667 26.1204C27.7667 26.4074 26.35 26.4074 24.65 26.4074C22.95 26.4074 21.5333 26.4074 19.8333 26.1204C19.55 26.1204 19.2667 26.1204 18.9833 26.4074C18.7 26.6944 18.7 26.6944 18.7 26.9815V29.2778C18.7 29.5648 18.9833 30.1389 19.2667 30.4259C19.55 30.713 19.8333 31 20.4 31H29.1833C29.4667 31 30.0333 30.713 30.3167 30.4259C30.6 30.1389 30.8833 29.8519 30.8833 29.2778V26.9815C30.8833 26.6944 30.8833 26.4074 30.6 26.1204C30.3167 25.8333 29.75 26.1204 29.4667 26.1204Z" fill="#187779"/>
</svg>
