<svg width="13" height="9" viewBox="0 0 13 9" fill="none" xmlns="http://www.w3.org/2000/svg">
<path d="M11.9182 0.631592C11.8091 0.631592 11.7091 0.679553 11.6182 0.765884L6.5 6.17596L1.38182 0.775476C1.29091 0.679553 1.19091 0.641184 1.08182 0.641184C0.972727 0.641184 0.872727 0.689145 0.781818 0.775476L0.127272 1.46612C0.0363627 1.56205 8.30452e-08 1.66756 8.16726e-08 1.78267C8.02999e-08 1.89778 0.0454541 2.00329 0.127272 2.09922L6.2 8.4973C6.29091 8.59322 6.39091 8.63159 6.5 8.63159C6.60909 8.63159 6.70909 8.58363 6.8 8.4973L12.8727 2.08963C12.9636 1.9937 13 1.88819 13 1.77308C13 1.65797 12.9545 1.55245 12.8727 1.45653L12.2182 0.765884C12.1364 0.679553 12.0364 0.631592 11.9182 0.631592Z" fill="#C4C4C4"/>
</svg>
