<svg width="17" height="17" viewBox="0 0 17 17" fill="none" xmlns="http://www.w3.org/2000/svg">
<path d="M1.42302 15.5488C1.42019 15.5487 1.41443 15.5485 1.4061 15.5479C1.38614 15.5466 1.35305 15.5436 1.31154 15.5371C1.2248 15.5234 1.12139 15.4976 1.02768 15.4535C0.935835 15.4103 0.873406 15.3593 0.833372 15.3028C0.798297 15.2533 0.75 15.1579 0.75 14.9655C0.75 14.5064 1.01825 13.3704 2.10777 12.345C3.17827 11.3375 5.10383 10.3822 8.5 10.3822C11.8962 10.3822 13.8217 11.3375 14.8922 12.345C15.9818 13.3704 16.25 14.5064 16.25 14.9655C16.25 15.1579 16.2017 15.2533 16.1666 15.3028C16.1266 15.3593 16.0642 15.4103 15.9723 15.4535C15.8786 15.4976 15.7752 15.5234 15.6885 15.5371C15.6469 15.5436 15.6139 15.5466 15.5939 15.5479C15.5856 15.5485 15.5798 15.5487 15.577 15.5488H1.42302ZM10.9912 6.58111C10.3378 7.19605 9.44243 7.54883 8.5 7.54883C7.55757 7.54883 6.66219 7.19605 6.00882 6.58111C5.35699 5.96762 5 5.1456 5 4.29883C5 3.45205 5.35699 2.63004 6.00882 2.01655C6.66219 1.40161 7.55757 1.04883 8.5 1.04883C9.44243 1.04883 10.3378 1.40161 10.9912 2.01655C11.643 2.63004 12 3.45205 12 4.29883C12 5.14561 11.643 5.96762 10.9912 6.58111Z" stroke="#CCCCCC" stroke-width="1.5"/>
</svg>
