<svg width="8" height="10" viewBox="0 0 8 10" fill="none" xmlns="http://www.w3.org/2000/svg">
<path fill-rule="evenodd" clip-rule="evenodd" d="M4.66262 9.4C5.93738 8.28754 8 6.48754 8 4C8 1.79086 6.20914 0 4 0C1.79086 0 0 1.79086 0 4C0 6.48754 2.06262 8.28754 3.33738 9.4C3.6 9.62918 3.82918 9.82918 4 10C4.17082 9.82918 4.4 9.62918 4.66262 9.4ZM3.88889 5.55556C4.80936 5.55556 5.55556 4.80936 5.55556 3.88889C5.55556 2.96841 4.80936 2.22222 3.88889 2.22222C2.96841 2.22222 2.22222 2.96841 2.22222 3.88889C2.22222 4.80936 2.96841 5.55556 3.88889 5.55556Z" fill="#7C86A2"/>
</svg>
