<svg width="375" height="667" viewBox="0 0 375 667" fill="none" xmlns="http://www.w3.org/2000/svg">
<rect width="375" height="667" fill="#187779"/>
<mask id="mask0_405:5470" style="mask-type:alpha" maskUnits="userSpaceOnUse" x="0" y="0" width="375" height="666">
<rect width="375" height="665.717" fill="#187779"/>
</mask>
<g mask="url(#mask0_405:5470)">
<path d="M-63.457 -18.2445V75.5792C19.4391 73.4233 85.78 32.1408 85.78 -18.2445H-63.457Z" fill="url(#paint0_radial_405:5470)" fill-opacity="0.1"/>
<path d="M98.6162 -18.2445C98.6162 39.1277 26.517 86.0795 -63.457 88.3552V123.369C62.2267 121.134 163.398 58.4913 163.398 -18.2844H98.6162V-18.2445Z" fill="url(#paint1_radial_405:5470)" fill-opacity="0.1"/>
<path d="M176.714 -18.2445C176.714 65.7976 69.5846 134.389 -63.457 136.704V173.635C102.775 171.04 236.736 85.4008 236.456 -19.1229L176.714 -18.2445Z" fill="url(#paint2_radial_405:5470)" fill-opacity="0.1"/>
<path d="M486.677 665.717V434.996C283.703 440.297 121.265 541.815 121.265 665.717H486.677Z" fill="url(#paint3_radial_405:5470)" fill-opacity="0.2"/>
<path d="M89.8354 665.717C89.8354 524.634 266.373 409.175 486.677 403.578V317.475C178.936 322.973 -68.7838 477.017 -68.7838 665.816H89.8354V665.717Z" fill="url(#paint4_radial_405:5470)" fill-opacity="0.2"/>
<path d="M-101.389 665.717C-101.389 459.05 160.92 290.377 486.677 284.683V193.867C79.6523 200.249 -248.356 410.844 -247.671 667.877L-101.389 665.717Z" fill="url(#paint5_radial_405:5470)" fill-opacity="0.2"/>
</g>
<defs>
<radialGradient id="paint0_radial_405:5470" cx="0" cy="0" r="1" gradientUnits="userSpaceOnUse" gradientTransform="translate(87.9571 -95.3889) rotate(126.972) scale(260.972 4430.36)">
<stop stop-color="#A0FDFF"/>
<stop offset="1" stop-color="#DEFFFC"/>
</radialGradient>
<radialGradient id="paint1_radial_405:5470" cx="0" cy="0" r="1" gradientUnits="userSpaceOnUse" gradientTransform="translate(166.707 -134.756) rotate(127.16) scale(394.987 6717.94)">
<stop stop-color="#A0FDFF"/>
<stop offset="1" stop-color="#DEFFFC"/>
</radialGradient>
<radialGradient id="paint2_radial_405:5470" cx="0" cy="0" r="1" gradientUnits="userSpaceOnUse" gradientTransform="translate(240.832 -177.614) rotate(126.367) scale(531.957 8973.78)">
<stop stop-color="#A0FDFF"/>
<stop offset="1" stop-color="#DEFFFC"/>
</radialGradient>
<radialGradient id="paint3_radial_405:5470" cx="0" cy="0" r="1" gradientUnits="userSpaceOnUse" gradientTransform="translate(115.934 855.423) rotate(-53.1461) scale(640.759 10864.7)">
<stop stop-color="#9CFDFF"/>
<stop offset="1" stop-color="#E1FFFC"/>
</radialGradient>
<radialGradient id="paint4_radial_405:5470" cx="0" cy="0" r="1" gradientUnits="userSpaceOnUse" gradientTransform="translate(-76.8872 952.231) rotate(-52.9588) scale(969.791 16474.9)">
<stop stop-color="#9CFDFF"/>
<stop offset="1" stop-color="#E1FFFC"/>
</radialGradient>
<radialGradient id="paint5_radial_405:5470" cx="0" cy="0" r="1" gradientUnits="userSpaceOnUse" gradientTransform="translate(-258.385 1057.62) rotate(-53.7507) scale(1306.16 22005.8)">
<stop stop-color="#9CFDFF"/>
<stop offset="1" stop-color="#E1FFFC"/>
</radialGradient>
</defs>
</svg>
