<svg width="13" height="11" viewBox="0 0 13 11" fill="none" xmlns="http://www.w3.org/2000/svg">
<path d="M9.55636 0.260052C9.4926 0.23443 9.42438 0.221736 9.35567 0.222708H1.05947C0.990758 0.221736 0.922541 0.23443 0.858781 0.260052C0.79502 0.285674 0.736987 0.323712 0.688055 0.371957C0.639123 0.420202 0.600268 0.47769 0.573747 0.541082C0.547227 0.604474 0.533569 0.672505 0.533569 0.741221C0.533569 0.809937 0.547227 0.877968 0.573747 0.94136C0.600268 1.00475 0.639123 1.06224 0.688055 1.11049C0.736987 1.15873 0.79502 1.19677 0.858781 1.22239C0.922541 1.24801 0.990758 1.26071 1.05947 1.25973H9.35567C9.42438 1.26071 9.4926 1.24801 9.55636 1.22239C9.62012 1.19677 9.67815 1.15873 9.72708 1.11049C9.77602 1.06224 9.81487 1.00475 9.84139 0.94136C9.86791 0.877968 9.88157 0.809937 9.88157 0.741221C9.88157 0.672505 9.86791 0.604474 9.84139 0.541082C9.81487 0.47769 9.77602 0.420202 9.72708 0.371957C9.67815 0.323712 9.62012 0.285674 9.55636 0.260052Z" fill="white"/>
<path d="M5.40826 2.3341C5.3445 2.30848 5.27628 2.29579 5.20757 2.29676H1.05947C0.990758 2.29579 0.922541 2.30848 0.858781 2.3341C0.79502 2.35972 0.736987 2.39776 0.688055 2.44601C0.639123 2.49425 0.600268 2.55174 0.573747 2.61513C0.547227 2.67853 0.533569 2.74656 0.533569 2.81527C0.533569 2.88399 0.547227 2.95202 0.573747 3.01541C0.600268 3.0788 0.639123 3.13629 0.688055 3.18454C0.736987 3.23278 0.79502 3.27082 0.858781 3.29644C0.922541 3.32206 0.990758 3.33476 1.05947 3.33378H5.20757C5.27628 3.33476 5.3445 3.32206 5.40826 3.29644C5.47202 3.27082 5.53005 3.23278 5.57898 3.18454C5.62791 3.13629 5.66677 3.0788 5.69329 3.01541C5.71981 2.95202 5.73347 2.88399 5.73347 2.81527C5.73347 2.74656 5.71981 2.67853 5.69329 2.61513C5.66677 2.55174 5.62791 2.49425 5.57898 2.44601C5.53005 2.39776 5.47202 2.35972 5.40826 2.3341Z" fill="white"/>
<path d="M5.40826 4.40815C5.3445 4.38253 5.27628 4.36984 5.20757 4.37081H2.61501C2.5463 4.36984 2.47808 4.38253 2.41432 4.40815C2.35056 4.43378 2.29253 4.47181 2.24359 4.52006C2.19466 4.5683 2.15581 4.62579 2.12929 4.68918C2.10276 4.75258 2.08911 4.82061 2.08911 4.88932C2.08911 4.95804 2.10276 5.02607 2.12929 5.08946C2.15581 5.15285 2.19466 5.21034 2.24359 5.25859C2.29253 5.30683 2.35056 5.34487 2.41432 5.37049C2.47808 5.39611 2.5463 5.40881 2.61501 5.40784H5.20757C5.27628 5.40881 5.3445 5.39611 5.40826 5.37049C5.47202 5.34487 5.53005 5.30683 5.57898 5.25859C5.62791 5.21034 5.66677 5.15285 5.69329 5.08946C5.71981 5.02607 5.73347 4.95804 5.73347 4.88932C5.73347 4.82061 5.71981 4.75258 5.69329 4.68918C5.66677 4.62579 5.62791 4.5683 5.57898 4.52006C5.53005 4.47181 5.47202 4.43378 5.40826 4.40815Z" fill="white"/>
<path d="M5.40826 6.48221C5.3445 6.45658 5.27628 6.44389 5.20757 6.44486H1.05947C0.990758 6.44389 0.922541 6.45658 0.858781 6.48221C0.79502 6.50783 0.736987 6.54587 0.688055 6.59411C0.639123 6.64235 0.600268 6.69984 0.573747 6.76324C0.547227 6.82663 0.533569 6.89466 0.533569 6.96337C0.533569 7.03209 0.547227 7.10012 0.573747 7.16351C0.600268 7.22691 0.639123 7.28439 0.688055 7.33264C0.736987 7.38088 0.79502 7.41892 0.858781 7.44454C0.922541 7.47016 0.990758 7.48286 1.05947 7.48189H5.20757C5.27628 7.48286 5.3445 7.47016 5.40826 7.44454C5.47202 7.41892 5.53005 7.38088 5.57898 7.33264C5.62791 7.28439 5.66677 7.22691 5.69329 7.16351C5.71981 7.10012 5.73347 7.03209 5.73347 6.96337C5.73347 6.89466 5.71981 6.82663 5.69329 6.76324C5.66677 6.69984 5.62791 6.64235 5.57898 6.59411C5.53005 6.54587 5.47202 6.50783 5.40826 6.48221Z" fill="white"/>
<path d="M5.40826 8.55626C5.3445 8.53063 5.27628 8.51794 5.20757 8.51891H2.61501C2.5463 8.51794 2.47808 8.53063 2.41432 8.55626C2.35056 8.58188 2.29253 8.61992 2.24359 8.66816C2.19466 8.71641 2.15581 8.77389 2.12929 8.83729C2.10276 8.90068 2.08911 8.96871 2.08911 9.03743C2.08911 9.10614 2.10276 9.17417 2.12929 9.23756C2.15581 9.30096 2.19466 9.35844 2.24359 9.40669C2.29253 9.45493 2.35056 9.49297 2.41432 9.51859C2.47808 9.54422 2.5463 9.55691 2.61501 9.55594H5.20757C5.27628 9.55691 5.3445 9.54422 5.40826 9.51859C5.47202 9.49297 5.53005 9.45493 5.57898 9.40669C5.62791 9.35844 5.66677 9.30096 5.69329 9.23756C5.71981 9.17417 5.73347 9.10614 5.73347 9.03743C5.73347 8.96871 5.71981 8.90068 5.69329 8.83729C5.66677 8.77389 5.62791 8.71641 5.57898 8.66816C5.53005 8.61992 5.47202 8.58188 5.40826 8.55626Z" fill="white"/>
<path d="M10.0336 2.22266V4.34766C10.0336 4.55391 10.2023 4.72266 10.4086 4.72266H12.5336V9.84766C12.5336 10.0555 12.3664 10.2227 12.1586 10.2227H6.90857C6.70075 10.2227 6.53357 10.0555 6.53357 9.84766V2.59766C6.53357 2.38984 6.70075 2.22266 6.90857 2.22266H10.0336Z" fill="white"/>
<path d="M12.5336 4.22266V4.12734C12.5336 4.02891 12.4945 3.93359 12.4242 3.86328L10.8945 2.33203C10.8242 2.26172 10.7289 2.22266 10.6289 2.22266H10.5336V4.22266H12.5336Z" fill="white"/>
</svg>
