<svg width="13" height="13" viewBox="0 0 13 13" fill="none" xmlns="http://www.w3.org/2000/svg">
<path fill-rule="evenodd" clip-rule="evenodd" d="M0.533569 6.22266C0.533569 2.90926 3.22018 0.222656 6.53357 0.222656C9.84696 0.222656 12.5336 2.90926 12.5336 6.22266C12.5336 9.53605 9.84696 12.2227 6.53357 12.2227C3.22018 12.2227 0.533569 9.53605 0.533569 6.22266ZM1.55143 6.22266C1.55143 8.97355 3.78268 11.2048 6.53357 11.2048C9.28446 11.2048 11.5157 8.97355 11.5157 6.22266C11.5157 3.47176 9.28446 1.24051 6.53357 1.24051C3.78268 1.24051 1.55143 3.47176 1.55143 6.22266ZM6.96358 6.5376L8.8734 7.9184C8.92162 7.95188 8.93233 8.01885 8.89751 8.0684L8.51448 8.59072C8.47965 8.6376 8.41269 8.64831 8.36448 8.61349L6.1493 6.99831C6.12117 6.97822 6.1051 6.94608 6.1051 6.91126V3.22287C6.1051 3.16394 6.15332 3.11572 6.21225 3.11572H6.85644C6.91537 3.11572 6.96358 3.16394 6.96358 3.22287V6.5376Z" fill="#7C86A2"/>
</svg>
