<svg width="30" height="30" viewBox="0 0 30 30" fill="none" xmlns="http://www.w3.org/2000/svg">
<circle cx="15" cy="15" r="15" fill="#FAFAFA"/>
<path d="M9.82353 15.3703V8.47204C9.82353 8.21094 10.041 8 10.3102 8H20.0428C20.312 8 20.5294 8.21094 20.5294 8.47204V14.3352C20.5294 14.4001 20.4747 14.4532 20.4078 14.4532H19.5561C19.4892 14.4532 19.4345 14.4001 19.4345 14.3352V9.0621H10.9184V15.3703C10.9184 15.469 10.8359 15.549 10.734 15.549H10.008C9.9061 15.549 9.82353 15.469 9.82353 15.3703Z" fill="#187779"/>
<path d="M15.701 11.0401C15.701 11.1064 15.6431 11.1607 15.5723 11.1607H12.5601C12.4893 11.1607 12.4314 11.1064 12.4314 11.0401V10.3167C12.4314 10.2503 12.4893 10.1961 12.5601 10.1961H15.5723C15.6431 10.1961 15.701 10.2503 15.701 10.3167V11.0401Z" fill="#187779"/>
<path d="M17.9216 13.0583C17.9216 13.1246 17.8636 13.1789 17.7929 13.1789H12.5601C12.4893 13.1789 12.4314 13.1246 12.4314 13.0583V12.3349C12.4314 12.2685 12.4893 12.2143 12.5601 12.2143H17.7929C17.8636 12.2143 17.9216 12.2685 17.9216 12.3349V13.0583Z" fill="#187779"/>
<path d="M17.7929 15.2745C17.8636 15.2745 17.9216 15.2202 17.9216 15.1539V14.4305C17.9216 14.3641 17.8636 14.3099 17.7929 14.3099H12.5601C12.4893 14.3099 12.4314 14.3641 12.4314 14.4305V15.1539C12.4314 15.2202 12.4893 15.2745 12.5601 15.2745H17.7929Z" fill="#187779"/>
<path d="M20.8718 16.098C20.6174 16.098 20.3415 16.2274 19.8279 16.4683L19.8273 16.4686C19.7467 16.5063 19.6603 16.5469 19.5672 16.5901C18.9981 16.8544 18.4717 17.1057 18.1374 17.289C18.1664 17.4014 18.1836 17.5179 18.1836 17.638C18.1836 18.4873 17.411 19.178 16.4617 19.178H14.3093C14.0717 19.178 13.8788 19.0058 13.8788 18.793C13.8788 18.5802 14.0717 18.408 14.3093 18.408H16.4617C16.9364 18.408 17.3226 18.0625 17.3226 17.638C17.3226 17.4078 17.2067 17.2032 17.027 17.0618C16.823 16.9412 16.5808 16.868 16.3182 16.868H14.8833C14.8802 16.868 14.8772 16.8678 14.8743 16.8675C14.8726 16.8673 14.8709 16.867 14.8691 16.8668C14.867 16.8665 14.8648 16.8663 14.8626 16.866C14.8614 16.8659 14.8601 16.8658 14.8589 16.8657C14.1024 16.8552 13.739 16.7854 13.4196 16.7225C13.1292 16.6653 12.8548 16.6114 12.3942 16.6114C10.29 16.6114 9.08869 18.9216 9.03875 19.0199C8.9739 19.1472 8.9914 19.2955 9.0841 19.408L11.093 21.8447C11.1748 21.9441 11.3037 22 11.4385 22C11.4658 22 11.4928 21.9977 11.52 21.9931C11.6825 21.9654 11.8139 21.8555 11.8561 21.7125C11.8788 21.6368 12.098 20.9746 12.8743 20.9746C13.4328 20.9746 14.0103 21.0389 14.5691 21.1011L14.5745 21.1017C15.1453 21.1656 15.7359 21.2313 16.3182 21.2313C17.0885 21.2313 17.6492 20.7181 19.1928 19.3049L19.5712 18.9588C21.4427 17.2469 21.6275 17.0778 21.6275 16.7127C21.6275 16.3837 21.3046 16.098 20.8718 16.098Z" fill="#187779"/>
</svg>
