<svg width="30" height="30" viewBox="0 0 30 30" fill="none" xmlns="http://www.w3.org/2000/svg">
<circle cx="15" cy="15" r="15" fill="#FAFAFA"/>
<path d="M18.1728 10.3594C19.0093 10.6027 19.8076 10.9496 20.547 11.3909C21.2789 11.8298 21.9435 12.3609 22.5225 12.9695C23.1078 13.5825 23.6046 14.2656 24 15.0011C23.6047 15.7366 23.1079 16.4198 22.5225 17.0327C21.9435 17.641 21.2789 18.1718 20.547 18.6103C19.8076 19.0512 19.0092 19.3977 18.1728 19.6406C16.4273 20.1198 14.5727 20.1198 12.8272 19.6406C11.9908 19.3977 11.1924 19.0513 10.453 18.6103C9.72107 18.1719 9.05639 17.6411 8.47751 17.0327C7.89199 16.4198 7.39518 15.7367 7 15.0011C7.3953 14.2656 7.89211 13.5825 8.47751 12.9695C9.05639 12.3609 9.72106 11.8297 10.453 11.3909C11.1923 10.9495 11.9907 10.6026 12.8272 10.3594C14.5727 9.88021 16.4273 9.88021 18.1728 10.3594ZM19.6842 12.6569C19.6587 12.6336 19.6309 12.6127 19.6011 12.5944L19.5015 12.5318C19.5791 12.7515 19.64 12.976 19.6839 13.2037C19.8285 13.9676 19.7361 14.7546 19.4179 15.4704C18.9806 16.4239 18.173 17.1842 17.1602 17.596C16.6341 17.8023 16.0699 17.9085 15.5 17.9085C14.9301 17.9085 14.3659 17.8023 13.8398 17.596C12.827 17.1842 12.0194 16.4239 11.5821 15.4704C11.2645 14.7546 11.1722 13.968 11.3163 13.2042C11.3602 12.9765 11.4212 12.752 11.4987 12.5323L11.3992 12.5949C11.3694 12.6131 11.3415 12.634 11.3161 12.6574C10.8093 12.9474 10.3436 13.2965 9.93001 13.6966C9.51658 14.0957 9.1467 14.5329 8.82591 15.0016C9.14663 15.4703 9.51652 15.9075 9.93001 16.3066C10.3435 16.7068 10.8092 17.056 11.3161 17.3458C11.9359 17.7205 12.6095 18.0097 13.3166 18.2043C14.7416 18.6004 16.2579 18.6004 17.6829 18.2043C18.3899 18.0097 19.0636 17.7205 19.6834 17.3458C20.1903 17.0558 20.6561 16.7067 21.0697 16.3066C21.483 15.9074 21.8528 15.4702 22.1736 15.0016C21.8527 14.5331 21.4829 14.0959 21.0697 13.6966C20.656 13.2965 20.1903 12.9472 19.6837 12.6569H19.6842ZM15.0351 12.4381C14.7254 12.1465 14.3488 12.0007 13.9055 12.0005C13.4621 12.0003 13.0861 12.1462 12.7774 12.4381C12.4673 12.7297 12.3124 13.0839 12.3125 13.5008C12.3127 13.9177 12.4677 14.2716 12.7774 14.5627C13.087 14.8547 13.4633 15.0005 13.9063 15.0004C14.3493 15.0002 14.7255 14.8543 15.0351 14.5627C15.3449 14.2713 15.4998 13.9171 15.5 13.5001C15.5002 13.083 15.3452 12.7291 15.0351 12.4381Z" fill="#40A840"/>
</svg>
