<svg width="13" height="13" viewBox="0 0 13 13" fill="none" xmlns="http://www.w3.org/2000/svg">
<path d="M3.6597 10.8981H0.94492V1.58415H8.29431V2.83912C8.29431 2.89733 8.34156 2.94496 8.3993 2.94496H9.13424C9.19199 2.94496 9.23923 2.89733 9.23923 2.83912V1.05495C9.23923 0.820781 9.05155 0.631592 8.81926 0.631592H0.419963C0.187674 0.631592 0 0.820781 0 1.05495V11.4273C0 11.6615 0.187674 11.8507 0.419963 11.8507H3.6597C3.71744 11.8507 3.76469 11.803 3.76469 11.7448V11.0039C3.76469 10.9457 3.71744 10.8981 3.6597 10.8981Z" fill="#7C86A2"/>
<path d="M1.99483 3.11884C1.99483 3.06062 2.04208 3.013 2.09982 3.013H6.47946C6.53721 3.013 6.58445 3.06062 6.58445 3.11884V3.75388C6.58445 3.81209 6.53721 3.85972 6.47946 3.85972H2.09982C2.04208 3.85972 1.99483 3.81209 1.99483 3.75388V3.11884Z" fill="#7C86A2"/>
<path d="M4.28964 5.02396V5.659C4.28964 5.71721 4.2424 5.76484 4.18465 5.76484H2.09982C2.04208 5.76484 1.99483 5.71721 1.99483 5.659V5.02396C1.99483 4.96575 2.04208 4.91812 2.09982 4.91812H4.18465C4.2424 4.91812 4.28964 4.96575 4.28964 5.02396Z" fill="#7C86A2"/>
<path d="M10.2419 9.38908C10.3528 9.46739 10.3707 9.61691 10.2977 9.72088L10.2958 9.72361L10.0332 10.0816C9.95558 10.1861 9.80773 10.2091 9.70162 10.1325L8.18763 9.02858L8.18679 9.02798C8.12331 8.98221 8.08832 8.90978 8.08832 8.8348V6.31276C8.08832 6.18135 8.19516 6.07452 8.32657 6.07452H8.76706C8.89847 6.07452 9.0053 6.18135 9.0053 6.31276V8.49499L10.2419 9.38908Z" fill="#7C86A2"/>
<path fill-rule="evenodd" clip-rule="evenodd" d="M4.27864 8.36395C4.27864 6.00721 6.18955 4.0963 8.54628 4.0963C10.903 4.0963 12.8139 6.00721 12.8139 8.36395C12.8139 10.7207 10.903 12.6316 8.54628 12.6316C6.18955 12.6316 4.27864 10.7207 4.27864 8.36395ZM5.3046 8.36395C5.3046 10.1538 6.75641 11.6056 8.54628 11.6056C10.3362 11.6056 11.788 10.1538 11.788 8.36395C11.788 6.57407 10.3362 5.12226 8.54628 5.12226C6.75641 5.12226 5.3046 6.57407 5.3046 8.36395Z" fill="#7C86A2"/>
</svg>
