<svg width="48" height="38" viewBox="0 0 48 38" fill="none" xmlns="http://www.w3.org/2000/svg">
<path d="M35.1298 20.7136C35.1298 21.5409 34.8426 22.2091 34.2683 22.7818L22.8774 34.1409C22.2712 34.7136 21.5693 35 20.7716 35C19.942 35 19.2719 34.7136 18.6976 34.1409L2.13778 17.5955C1.56345 17.0227 1.05294 16.2591 0.638144 15.2727C0.191443 14.2864 0 13.3955 0 12.5682V2.95909C0 2.16364 0.287165 1.46364 0.893401 0.890909C1.46773 0.286364 2.16969 0 2.96737 0H12.6033C13.4329 0 14.3263 0.190909 15.3154 0.604545C16.3046 1.01818 17.1022 1.49545 17.6766 2.1L34.2364 18.6136C34.8426 19.2182 35.1298 19.9182 35.1298 20.7136ZM9.50834 9.48182C10.0827 8.90909 10.3698 8.20909 10.3698 7.38182C10.3698 6.55455 10.0827 5.85455 9.50834 5.28182C8.93401 4.70909 8.23205 4.42273 7.40247 4.42273C6.57288 4.42273 5.87092 4.70909 5.29659 5.28182C4.72226 5.85455 4.4351 6.55455 4.4351 7.38182C4.4351 8.20909 4.72226 8.90909 5.29659 9.48182C5.87092 10.0545 6.57288 10.3409 7.40247 10.3409C8.23205 10.3409 8.93401 10.0545 9.50834 9.48182ZM44 20.7136C44 21.5409 43.7128 22.2091 43.1385 22.7818L31.7476 34.1409C31.1414 34.7136 30.4395 35 29.6418 35C29.0993 35 28.6207 34.9045 28.2698 34.6818C27.9188 34.4591 27.504 34.1091 27.0573 33.6318L37.9695 22.7818C38.5439 22.2091 38.831 21.5091 38.831 20.7136C38.831 19.9182 38.5439 19.2182 37.9695 18.6136L21.3778 2.1C20.8035 1.52727 20.0058 1.01818 19.0167 0.604545C18.0276 0.190909 17.1342 0 16.3046 0H21.5054C22.335 0 23.2284 0.190909 24.2176 0.604545C25.2067 1.01818 26.0044 1.49545 26.5787 2.1L43.1385 18.6136C43.7128 19.2182 44 19.9182 44 20.7136Z" fill="#187779"/>
</svg>
