<svg width="17" height="21" viewBox="0 0 17 21" fill="none" xmlns="http://www.w3.org/2000/svg">
<path fill-rule="evenodd" clip-rule="evenodd" d="M8.93284 0.5C8.04919 0.5 7.33284 1.21634 7.33284 2.1V2.30156C4.57228 3.01189 2.53245 5.51775 2.53245 8.50003V14.1H2.93265C1.82808 14.1 0.932648 14.9955 0.932648 16.1V16.3C0.932648 16.8523 1.38036 17.3 1.93265 17.3H15.9326C16.4849 17.3 16.9326 16.8523 16.9326 16.3V16.1C16.9326 14.9955 16.0372 14.1 14.9326 14.1H15.3325V8.50003C15.3325 5.51803 13.293 3.01237 10.5328 2.30176V2.1C10.5328 1.21634 9.8165 0.5 8.93284 0.5ZM6.53245 18.1C6.53245 19.4255 7.60697 20.5 8.93245 20.5C10.2579 20.5 11.3325 19.4255 11.3325 18.1H6.53245Z" fill="white"/>
</svg>
