<svg width="14" height="17" viewBox="0 0 14 17" fill="none" xmlns="http://www.w3.org/2000/svg">
<path d="M12.9377 4.24571C13.0955 4.40465 13.2533 4.61657 13.3584 4.93445C13.4636 5.19935 13.5162 5.46425 13.5162 5.72915V16.0073C13.5162 16.2192 13.411 16.4311 13.2533 16.5901C13.0955 16.749 12.8851 16.855 12.6747 16.855H0.841476C0.631107 16.855 0.420739 16.749 0.262962 16.5901C0.105185 16.4311 0 16.2192 0 16.0073V1.70266C0 1.49074 0.105185 1.27882 0.262962 1.11988C0.368146 0.960941 0.578515 0.85498 0.841476 0.85498H8.73032C8.94069 0.85498 9.20366 0.907961 9.51921 1.01392C9.83476 1.11988 10.0451 1.27882 10.2029 1.43776L12.9377 4.24571ZM12.4118 15.6894V6.57683H8.73032C8.51996 6.57683 8.30959 6.47087 8.15181 6.31193C7.99403 6.15299 7.88885 5.94107 7.88885 5.72915V2.02054H1.10444V15.6894H12.4118ZM7.88885 10.3914C8.09922 10.5503 8.30959 10.7093 8.62514 10.8682C8.99329 10.8152 9.30884 10.8152 9.67699 10.8152C10.5185 10.8152 11.0444 10.9742 11.2548 11.2391C11.3599 11.345 11.3599 11.504 11.2548 11.7159C11.2022 11.9278 10.9918 12.0338 10.6236 12.0338C10.3607 12.0338 9.99254 11.9808 9.6244 11.8748C9.20366 11.7689 8.83551 11.6099 8.46736 11.398C7.15256 11.557 5.99552 11.7689 4.99627 12.1397C4.1022 13.6762 3.36591 14.4709 2.83998 14.4709C2.7348 14.4709 2.68221 14.4709 2.57702 14.4179L2.36665 14.3119C2.36665 14.3119 2.36665 14.3119 2.31406 14.259C2.26147 14.206 2.26147 14.1 2.26147 13.9411C2.31406 13.7292 2.47184 13.4113 2.7348 13.1464C2.99776 12.8285 3.4185 12.5636 3.89183 12.2987C3.99702 12.2457 4.04961 12.2457 4.1022 12.3517C4.1022 12.3517 4.1022 12.3517 4.1022 12.4046C4.41776 11.8748 4.73331 11.2921 5.04886 10.6563C5.4696 9.8616 5.73256 9.0669 5.94293 8.32518C5.78516 7.84836 5.73256 7.37154 5.67997 6.89472C5.62738 6.41789 5.67997 6.04703 5.73256 5.78213C5.78515 5.57021 5.94293 5.41127 6.10071 5.41127H6.31108C6.46886 5.41127 6.57404 5.46425 6.62663 5.57021C6.73182 5.67617 6.78441 5.88809 6.73182 6.15299C6.73182 6.20597 6.73182 6.20597 6.67922 6.20597V6.25895V6.52385C6.67922 7.26558 6.62663 7.84836 6.57404 8.21922C6.88959 9.22584 7.36293 9.96756 7.88885 10.3914ZM2.78739 14.047C3.10295 13.8881 3.52368 13.4113 3.99702 12.6166C3.68146 12.8285 3.4185 13.0934 3.20813 13.3583C2.99776 13.6762 2.83999 13.8881 2.78739 14.047ZM5.20664 11.7689C5.99552 11.451 6.837 11.1861 7.73107 11.0272C7.73107 11.0272 7.67848 10.9742 7.62589 10.9212C7.57329 10.8682 7.5207 10.8152 7.46811 10.8152C6.99478 10.3914 6.62663 9.91458 6.36367 9.22584C6.20589 9.75564 5.94293 10.3384 5.62738 10.9742C5.41701 11.345 5.31182 11.6099 5.20664 11.7689ZM6.31108 5.83511C6.20589 6.10001 6.20589 6.47087 6.31108 7.00068C6.31108 6.9477 6.31108 6.84173 6.36367 6.62981C6.36367 6.62981 6.36367 6.47087 6.41626 6.25895C6.41626 6.25895 6.41626 6.20597 6.46886 6.20597C6.46886 6.20597 6.46886 6.20597 6.46886 6.15299C6.41626 5.99405 6.36367 5.88809 6.31108 5.83511ZM9.04588 2.07352V5.41127H12.3592C12.3066 5.25233 12.254 5.09339 12.1488 5.04041L9.36143 2.23246C9.30884 2.17948 9.20366 2.1265 9.04588 2.07352ZM10.9392 11.6099C10.7814 11.451 10.3607 11.398 9.67699 11.398C10.1503 11.557 10.4659 11.6629 10.7814 11.6629C10.8866 11.6629 10.9392 11.6629 10.9392 11.6099Z" fill="#DB0000"/>
</svg>
