<svg width="16" height="16" viewBox="0 0 16 16" fill="none" xmlns="http://www.w3.org/2000/svg">
<rect width="16" height="16" rx="8" fill="#40A840"/>
<path fill-rule="evenodd" clip-rule="evenodd" d="M9.19175 4.9113C10.1464 5.09757 10.8929 5.84403 11.0792 6.79872L9.19175 4.9113ZM9.19175 3C11.1888 3.22186 12.7661 4.79712 12.9905 6.79394L9.19175 3ZM12.5126 10.607V12.0405C12.5137 12.3096 12.4013 12.5666 12.203 12.7485C12.0048 12.9305 11.739 13.0203 11.471 12.9961C10.0006 12.8364 8.58826 12.3339 7.34734 11.5292C6.19284 10.7956 5.21401 9.81675 4.48039 8.66224C3.67285 7.41569 3.17031 5.99644 3.01346 4.51949C2.98932 4.25232 3.07858 3.98731 3.25943 3.78919C3.44029 3.59107 3.69608 3.47808 3.96434 3.47783H5.39782C5.87749 3.4731 6.28633 3.82471 6.35347 4.29969C6.41397 4.75843 6.52618 5.20886 6.68795 5.64238C6.81922 5.99161 6.73526 6.3853 6.47292 6.65059L5.86608 7.25743C6.5463 8.45369 7.53678 9.44417 8.73304 10.1244L9.33988 9.51755C9.60516 9.25521 9.99886 9.17125 10.3481 9.30252C10.7816 9.46429 11.232 9.5765 11.6908 9.637C12.1713 9.70479 12.5247 10.1219 12.5126 10.607Z" fill="white"/>
</svg>
