<svg width="25" height="25" viewBox="0 0 25 25" fill="none" xmlns="http://www.w3.org/2000/svg">
<path d="M15.7299 12.2445C15.7321 12.2271 15.7343 12.2097 15.7343 12.192C15.7343 11.3144 15.3802 10.5198 14.8106 9.93522C15.2656 9.48264 15.8753 9.09772 16.5768 8.91942C15.956 8.50072 15.5274 7.67829 15.5274 6.93556C15.5274 5.8875 16.3767 5.03857 17.4242 5.03857C18.471 5.03857 19.3196 5.8875 19.3196 6.93556C19.3196 7.67829 18.8923 8.50133 18.271 8.91942C19.7556 9.29635 20.8568 10.5856 20.8568 11.5419C20.8568 12.1083 19.1423 12.3879 17.4254 12.3866L18.3873 11.4275L17.5757 9.4701H17.5837L17.8983 9.10986C17.7463 9.16467 17.5886 9.19764 17.4242 9.19764C17.2591 9.19764 17.1015 9.16407 16.9494 9.10925L17.2641 9.4701H17.2721L16.4623 11.4275L17.4236 12.3866C16.8342 12.386 16.2455 12.3534 15.7257 12.2869C15.7263 12.2728 15.7281 12.2587 15.7299 12.2445Z" fill="#187779"/>
<path d="M7.57343 12.3871L6.61366 11.4281L7.42345 9.47071H7.41515L7.10113 9.10986C7.25384 9.16467 7.41081 9.19825 7.57525 9.19825C7.74 9.19825 7.89767 9.16558 8.05008 9.11046L7.73474 9.47071H7.72736L8.53745 11.4281L7.57646 12.3871C8.16618 12.3865 8.75519 12.3533 9.27492 12.2874C9.27425 12.2732 9.27242 12.2592 9.2706 12.2451C9.26831 12.2275 9.26602 12.2098 9.26602 12.192C9.26602 11.3151 9.61979 10.5207 10.1886 9.93653C9.73377 9.48385 9.12352 9.09904 8.42236 8.92074C9.04282 8.50254 9.47072 7.67951 9.47072 6.93688C9.47072 5.88871 8.62341 5.04009 7.57464 5.04009C6.5277 5.04009 5.67847 5.88871 5.67847 6.93688C5.67847 7.67951 6.10708 8.50204 6.72774 8.92074C5.24207 9.29847 4.14162 10.5874 4.14162 11.5433C4.14172 12.1083 5.85677 12.3884 7.57343 12.3871Z" fill="#187779"/>
<path d="M7.57343 12.3871H7.57646L7.57464 12.3891L7.57343 12.3871Z" fill="#187779"/>
<path d="M17.4248 12.3891L17.4254 12.3866H17.4236L17.4248 12.3891Z" fill="#187779"/>
<path d="M23.8016 13.9237L22.1297 12.3891L24.5 13.9237V15.0968H15.8716C15.584 14.8783 15.2798 14.6769 14.9522 14.5113C15.0865 14.3264 15.2022 14.1276 15.3039 13.9237H23.8016Z" fill="#187779"/>
<path d="M10.0478 14.5099C9.91409 14.3253 9.79809 14.1282 9.69615 13.9225H1.19688L2.86975 12.3884L0.500061 13.9225V15.0956H9.12838C9.4153 14.8782 9.71992 14.6762 10.0478 14.5099Z" fill="#187779"/>
<path d="M14.9886 12.192C14.9886 13.1663 14.4275 14.2464 13.6128 14.7958C15.562 15.2896 17.006 16.9819 17.0066 18.2382C17.0066 19.7193 7.99395 19.7193 7.99395 18.2382C7.99395 16.9819 9.43866 15.2896 11.3883 14.7958C10.573 14.2464 10.012 13.1663 10.012 12.192C10.012 10.8163 11.1248 9.7019 12.5003 9.7019C13.8745 9.7019 14.9886 10.8157 14.9886 12.192Z" fill="#187779"/>
</svg>
