<svg width="48" height="48" viewBox="0 0 48 48" fill="none" xmlns="http://www.w3.org/2000/svg">
<rect x="1" y="1" width="46" height="46" rx="23" fill="#DCFFFB"/>
<path d="M36 16H33V19.5C33.862 19.5 34.375 20.287 34.375 21.309C34.375 21.819 34.093 22.353 34.093 22.353C34.093 22.353 34.25 22.406 34.25 22.757C34.25 23.263 33.841 23.546 33.841 23.546C33.784 24.051 33 24.789 33 24.789V25.631C33.421 26.894 36 26.052 36 28.999H33V31.999H36C37.105 31.999 38 31.104 38 29.999V18C38 16.895 37.105 16 36 16ZM29 14H19C17.895 14 17 14.895 17 16V32C17 33.105 17.895 34 19 34H29C30.105 34 31 33.105 31 32V16C31 14.895 30.105 14 29 14ZM20 29C20 26.062 22.579 26.895 23 25.632V24.79C23 24.79 22.216 24.051 22.159 23.547C22.159 23.547 21.75 23.394 21.75 22.758C21.75 22.43 21.907 22.354 21.907 22.354C21.907 22.354 21.563 21.876 21.563 21.263C21.562 19.811 22.654 19 24 19C24.634 19 25 19.5 25 19.5C25.862 19.5 26.375 20.287 26.375 21.309C26.375 21.819 26.093 22.353 26.093 22.353C26.093 22.353 26.25 22.406 26.25 22.757C26.25 23.263 25.841 23.546 25.841 23.546C25.784 24.051 25 24.789 25 24.789V25.631C25.421 26.894 28 26.052 28 28.999L20 29ZM12 29C12 26.062 14.579 26.895 15 25.632V24.79C15 24.79 14.216 24.051 14.159 23.547C14.159 23.547 13.75 23.394 13.75 22.758C13.75 22.43 13.907 22.354 13.907 22.354C13.907 22.354 13.563 21.876 13.563 21.263C13.563 20.197 14.154 19.481 15.001 19.173V16H12C10.895 16 10 16.895 10 18V30C10 31.105 10.895 32 12 32H15V29H12Z" fill="#187779"/>
<rect x="1" y="1" width="46" height="46" rx="23" stroke="#65CACC" stroke-width="2"/>
</svg>
