<svg width="14" height="14" viewBox="0 0 14 14" fill="none" xmlns="http://www.w3.org/2000/svg">
<path fill-rule="evenodd" clip-rule="evenodd" d="M9.64334 10.9629C8.64029 11.6969 7.40333 12.1303 6.06515 12.1303C2.71546 12.1303 0 9.41485 0 6.06516C0 2.71546 2.71546 0 6.06515 0C9.41484 0 12.1303 2.71546 12.1303 6.06516C12.1303 7.4033 11.6969 8.64023 10.9629 9.64326L13.7268 12.4071C14.0912 12.7715 14.0912 13.3623 13.7268 13.7267C13.3624 14.0911 12.7716 14.0911 12.4072 13.7267L9.64334 10.9629ZM10.2641 6.06516C10.2641 8.38418 8.38418 10.2641 6.06516 10.2641C3.74614 10.2641 1.86621 8.38418 1.86621 6.06516C1.86621 3.74614 3.74614 1.8662 6.06516 1.8662C8.38418 1.8662 10.2641 3.74614 10.2641 6.06516Z" fill="white"/>
</svg>
