<svg width="30" height="30" viewBox="0 0 30 30" fill="none" xmlns="http://www.w3.org/2000/svg">
<circle cx="15" cy="15" r="15" fill="white"/>
<path d="M21.0541 16.2441C21.1648 16.436 21.3037 16.6115 21.4664 16.765C21.6225 16.9124 21.7972 17.0403 21.9864 17.1455L20.6704 19.3674C20.3783 19.2024 20.0548 19.0954 19.7192 19.0529C19.3835 19.0104 19.0424 19.0332 18.716 19.1199C18.3953 19.2008 18.0938 19.341 17.8284 19.5326C17.5537 19.7299 17.3252 19.9807 17.1575 20.2687C17.0453 20.4583 16.9591 20.661 16.9009 20.872C16.844 21.0768 16.8151 21.2879 16.815 21.5H14.1714C14.1726 21.1678 14.1009 20.839 13.9609 20.5355C13.8322 20.2437 13.6466 19.9786 13.4142 19.7544C13.1801 19.5301 12.9062 19.348 12.6056 19.2167C12.2886 19.0896 11.9486 19.0248 11.6053 19.0263C11.3786 19.0263 11.1529 19.0562 10.9345 19.1152C10.7232 19.1716 10.5199 19.2528 10.3291 19.3571L9 17.1455C9.29854 16.9837 9.5585 16.7632 9.76302 16.4982C9.96043 16.2377 10.1083 15.9453 10.1996 15.6348C10.2858 15.329 10.3068 15.0095 10.2612 14.6956C10.2244 14.3686 10.1168 14.0528 9.94541 13.7685C9.83442 13.5771 9.69576 13.4019 9.53358 13.2481C9.37254 13.097 9.19342 12.9648 9 12.8545L10.3291 10.6457C10.6245 10.8113 10.9509 10.9191 11.2896 10.963C11.6203 10.9977 11.9547 10.974 12.2767 10.8932C12.5953 10.8114 12.8947 10.6713 13.1585 10.4805C13.4347 10.2811 13.6671 10.0309 13.8425 9.74436C13.955 9.55317 14.0413 9.34866 14.0991 9.13598C14.1559 8.92842 14.1848 8.71467 14.185 8.5H16.8296C16.8264 8.83129 16.8936 9.1597 17.027 9.46497C17.153 9.76229 17.3386 10.0327 17.5732 10.2605C17.8109 10.4883 18.0906 10.6713 18.3978 10.8001C18.7087 10.9269 19.0431 10.991 19.3806 10.9882C19.6119 10.9891 19.8422 10.9592 20.065 10.8993C20.2782 10.8428 20.4821 10.7574 20.6704 10.6457L22 12.8672C21.4094 13.1966 20.9769 13.7371 20.796 14.3717C20.7127 14.6802 20.688 15.0006 20.7233 15.3175C20.7696 15.6443 20.882 15.9591 21.0541 16.2441ZM16.5672 17.4248C17.2164 17.1542 17.7341 16.6547 18.0146 16.0284C18.2953 15.3695 18.2953 14.6305 18.0146 13.9716C17.7341 13.3453 17.2164 12.8458 16.5672 12.5752C15.8843 12.3043 15.1182 12.3043 14.4353 12.5752C13.7859 12.8458 13.268 13.3452 12.9873 13.9716C12.7059 14.6311 12.7059 15.3712 12.9873 16.0307C13.2679 16.6558 13.7848 17.1543 14.4328 17.4248C15.1165 17.6963 15.8835 17.6963 16.5672 17.4248Z" fill="#187779"/>
</svg>
