<svg width="17" height="10" viewBox="0 0 17 10" fill="none" xmlns="http://www.w3.org/2000/svg">
<path d="M11.1728 0.359377C12.0093 0.602694 12.8076 0.949571 13.547 1.3909C14.2789 1.82981 14.9435 2.36092 15.5225 2.96946C16.1078 3.58252 16.6046 4.26564 17 5.0011C16.6047 5.73664 16.1079 6.41977 15.5225 7.03275C14.9435 7.64101 14.2789 8.17179 13.547 8.61033C12.8076 9.05123 12.0092 9.39769 11.1728 9.64062C9.42729 10.1198 7.57271 10.1198 5.82719 9.64062C4.99079 9.39775 4.1924 9.05128 3.453 8.61033C2.72107 8.17186 2.05639 7.64107 1.47751 7.03275C0.891993 6.41983 0.395178 5.73669 0 5.0011C0.395302 4.26558 0.892105 3.58246 1.47751 2.96946C2.05639 2.36086 2.72106 1.82974 3.453 1.3909C4.19233 0.949517 4.99072 0.602637 5.82719 0.359377C7.57271 -0.119792 9.42729 -0.119792 11.1728 0.359377ZM12.6842 2.65694C12.6587 2.63361 12.6309 2.61266 12.6011 2.59438L12.5015 2.53183C12.5791 2.75147 12.64 2.976 12.6839 3.20373C12.8285 3.96765 12.7361 4.75459 12.4179 5.47038C11.9806 6.4239 11.173 7.18423 10.1602 7.59598C9.63412 7.80228 9.06988 7.9085 8.5 7.9085C7.93012 7.9085 7.36588 7.80228 6.83982 7.59598C5.82697 7.18423 5.01939 6.4239 4.58211 5.47038C4.2645 4.75462 4.17223 3.96797 4.31632 3.20422C4.36023 2.97649 4.42119 2.75196 4.49873 2.53232L4.39918 2.59487C4.36935 2.61309 4.34151 2.63404 4.31606 2.65743C3.80933 2.94738 3.34362 3.29653 2.93001 3.69655C2.51658 4.09575 2.1467 4.53294 1.82591 5.00159C2.14663 5.47029 2.51652 5.90749 2.93001 6.30664C3.34348 6.70681 3.80921 7.05597 4.31606 7.34576C4.93585 7.72054 5.60955 8.00967 6.31656 8.20434C7.7416 8.60043 9.25787 8.60043 10.6829 8.20434C11.3899 8.00967 12.0636 7.72054 12.6834 7.34576C13.1903 7.05584 13.6561 6.70669 14.0697 6.30664C14.483 5.90736 14.8528 5.47017 15.1736 5.00159C14.8527 4.53306 14.4829 4.09588 14.0697 3.69655C13.656 3.29648 13.1903 2.94718 12.6837 2.65694H12.6842ZM8.03512 2.43812C7.72537 2.14653 7.34882 2.00065 6.90548 2.00049C6.46214 2.00033 6.08612 2.1462 5.77742 2.43812C5.46732 2.72971 5.31236 3.08394 5.31253 3.5008C5.31271 3.91766 5.46767 4.27164 5.77742 4.56274C6.08699 4.85465 6.46327 5.00053 6.90627 5.00037C7.34926 5.0002 7.72554 4.85433 8.03512 4.56274C8.34487 4.27131 8.49983 3.91709 8.5 3.50006C8.50017 3.08304 8.34521 2.72906 8.03512 2.43812Z" fill="#40A840"/>
</svg>
