<svg width="33" height="29" viewBox="0 0 33 29" fill="none" xmlns="http://www.w3.org/2000/svg">
<path d="M33 19.0823C33 21.0909 32.2326 23.8528 30.6977 27.2424C30.6977 27.368 30.5698 27.4935 30.4419 27.619C30.314 27.8701 30.314 27.9957 30.186 28.1212C30.0581 28.2468 30.0581 28.3723 29.9302 28.4978C29.8023 28.7489 29.5465 28.7489 29.4186 28.7489C29.2907 28.7489 29.0349 28.7489 29.0349 28.6234C29.0349 28.4978 28.907 28.3723 28.907 28.1212C28.907 27.9957 28.907 27.8701 28.907 27.619C28.907 27.368 28.907 27.2424 28.907 27.2424C28.907 26.3636 29.0349 25.7359 29.0349 24.9827C29.0349 23.7273 28.907 22.7229 28.6512 21.7186C28.3953 20.7143 28.1395 19.961 27.7558 19.2078C27.3721 18.4545 26.8605 17.9524 26.2209 17.3247C25.5814 16.8225 24.9419 16.4459 24.3023 16.0693C23.6628 15.6926 22.7674 15.4416 21.8721 15.316C20.9767 15.1905 19.9535 14.9394 19.0581 14.9394C18.1628 14.9394 17.1395 15.0649 15.9884 15.0649H11.7674V19.71C11.7674 20.0866 11.6395 20.3377 11.3837 20.4632C11.1279 20.5887 10.8721 20.8398 10.6163 20.8398C10.3605 20.8398 9.97674 20.7143 9.84884 20.4632L0.383721 11.2987C0.127907 11.0476 0 10.7965 0 10.4199C0 10.0433 0.127907 9.79221 0.383721 9.66667L9.84884 0.376623C9.97674 0.125541 10.3605 0 10.6163 0C10.8721 0 11.2558 0.125541 11.5116 0.376623C11.7674 0.627706 11.8953 0.878788 11.8953 1.12987V5.77489H15.9884C24.814 5.77489 30.186 8.16017 32.1047 13.0563C32.7442 14.6883 33 16.697 33 19.0823Z" fill="#187779"/>
</svg>
