<svg width="26" height="26" viewBox="0 0 26 26" fill="none" xmlns="http://www.w3.org/2000/svg">
<path d="M3.10539 22.9086H7.18235C7.31157 22.9086 7.41729 23.0147 7.41729 23.1445V24.7954C7.41729 24.9251 7.31157 25.0312 7.18235 25.0312H1.93067C1.41088 25.0312 0.990906 24.6097 0.990906 24.0879V0.974648C0.990906 0.45283 1.41088 0.03125 1.93067 0.03125H20.7261C21.246 0.03125 21.6659 0.45283 21.6659 0.974648V6.78664C21.6659 6.91636 21.5602 7.02249 21.431 7.02249H19.7864C19.6571 7.02249 19.5514 6.91636 19.5514 6.78664V2.15389H3.10539V22.9086Z" fill="#B8B8B8"/>
<path d="M5.68976 5.33785C5.56055 5.33785 5.45483 5.44398 5.45483 5.5737V6.9888C5.45483 7.11852 5.56055 7.22465 5.68976 7.22465H16.967C17.0963 7.22465 17.202 7.11852 17.202 6.9888V5.5737C17.202 5.44398 17.0963 5.33785 16.967 5.33785H5.68976Z" fill="#B8B8B8"/>
<path d="M9.2001 10.6243V9.20923C9.2001 9.07951 9.09437 8.97338 8.96516 8.97338H5.68976C5.56055 8.97338 5.45483 9.07951 5.45483 9.20923V10.6243C5.45483 10.754 5.56055 10.8602 5.68976 10.8602H8.96516C9.09437 10.8602 9.2001 10.754 9.2001 10.6243Z" fill="#B8B8B8"/>
<path d="M20.7893 16.4083H17.5434L21.7672 21.1785L25.9909 16.4076H22.9621C22.8269 15.629 22.561 14.8776 22.1752 14.1846L22.1749 14.1841C21.7558 13.4349 21.2081 12.7637 20.5565 12.2005L20.5557 12.1998C19.896 11.6335 19.1427 11.184 18.3289 10.8709L18.3283 10.8706C17.5005 10.5543 16.619 10.3971 15.6862 10.3971C14.6665 10.3971 13.7077 10.5869 12.8132 10.9688C11.0326 11.7071 9.61503 13.1075 8.86696 14.8699C8.48028 15.7552 8.28796 16.7044 8.28796 17.7142C8.28796 18.724 8.48028 19.6732 8.86696 20.5585C9.61523 22.3207 11.0327 23.721 12.8132 24.4596C13.7078 24.8416 14.6665 25.0314 15.6863 25.0312L15.9903 25.0312V22.9182L15.6856 22.9188C14.6411 22.9211 13.6199 22.6165 12.7515 22.0444C11.8831 21.4723 11.207 20.6586 10.8081 19.707C10.4093 18.7555 10.3055 17.7086 10.5097 16.699C10.714 15.6893 11.2172 14.7617 11.9562 14.0342L11.9564 14.034C12.5414 13.4568 13.2557 13.0233 14.042 12.7687C14.8283 12.5141 15.6642 12.4457 16.4822 12.569C17.3003 12.6923 18.0773 13.0038 18.7507 13.4782C19.424 13.9525 19.9747 14.5763 20.3588 15.299L20.3592 15.2998C20.5474 15.6513 20.6917 16.0236 20.7893 16.4083Z" fill="#B8B8B8"/>
</svg>
