<svg width="25" height="25" viewBox="0 0 25 25" fill="none" xmlns="http://www.w3.org/2000/svg">
<path d="M4.40906 0.5C3.89926 0.5 3.48599 0.913276 3.48599 1.42308C3.48599 1.93288 3.89926 2.34615 4.40906 2.34615H18.7168C18.9717 2.34615 19.1783 2.55279 19.1783 2.80769V5.11538L21.0245 7.42308V1.42308C21.0245 0.913276 20.6112 0.5 20.1014 0.5H4.40906ZM3.48599 4.19231C2.97619 4.19231 2.56291 4.60558 2.56291 5.11538V16.6538H4.40906V6.03846H14.4223C15.9407 6.03846 16.4091 6.6685 16.4091 7.22927C16.4091 8.05311 15.486 9.26923 15.486 9.26923C19.9911 11.4015 20.0166 11.4009 20.0166 13.0472C20.0166 14.6838 20.0593 13.3003 20.0842 16.6538H21.9475V12.5712C21.9475 11.6311 21.6155 10.7207 21.0109 10.0012L16.9211 5.13522C16.4185 4.53752 15.6783 4.19231 14.8973 4.19231H3.48599ZM1.1783 18.0385C0.668494 18.0385 0.255219 18.4517 0.255219 18.9615V23.5769C0.255219 24.0867 0.668494 24.5 1.1783 24.5H23.3321C23.8419 24.5 24.2552 24.0867 24.2552 23.5769V18.9615C24.2552 18.4517 23.8419 18.0385 23.3321 18.0385H15.5788C14.8851 19.1457 13.6583 19.8846 12.2552 19.8846C10.8521 19.8846 9.62529 19.1457 8.9316 18.0385H1.1783Z" fill="#B8B8B8"/>
</svg>
