<svg width="36" height="36" viewBox="0 0 36 36" fill="none" xmlns="http://www.w3.org/2000/svg">
<path d="M6.23077 0C5.46607 0 4.84615 0.619913 4.84615 1.38462V1.38462C4.84615 2.14932 5.46607 2.76923 6.23077 2.76923H27.6923C28.0747 2.76923 28.3846 3.07919 28.3846 3.46154V6.92308L31.1538 10.3846V1.38462C31.1538 0.619913 30.5339 0 29.7692 0H6.23077ZM4.84615 5.53846C4.08145 5.53846 3.46154 6.15838 3.46154 6.92308V24.2308H6.23077V8.30769H21.2506C23.5283 8.30769 24.2308 9.25275 24.2308 10.0939C24.2308 11.3297 22.8462 13.1538 22.8462 13.1538C29.6038 16.3523 29.6421 16.3513 29.6421 18.8208C29.6421 21.2757 29.7062 19.2005 29.7435 24.2308H32.5385V18.1068C32.5385 16.6966 32.0405 15.3311 31.1336 14.2518L24.9988 6.95282C24.2449 6.05629 23.1346 5.53846 21.9632 5.53846H4.84615ZM1.38462 26.3077C0.619913 26.3077 0 26.9276 0 27.6923V34.6154C0 35.3801 0.619913 36 1.38462 36H34.6154C35.3801 36 36 35.3801 36 34.6154V27.6923C36 26.9276 35.3801 26.3077 34.6154 26.3077H22.9854C21.9449 27.9685 20.1046 29.0769 18 29.0769C15.8954 29.0769 14.0551 27.9685 13.0146 26.3077H1.38462Z" fill="#187779"/>
</svg>
