<svg width="25" height="25" viewBox="0 0 25 25" fill="none" xmlns="http://www.w3.org/2000/svg">
<path d="M4.40897 0.5C3.89917 0.5 3.4859 0.913276 3.4859 1.42308V1.42308C3.4859 1.93288 3.89917 2.34615 4.40897 2.34615H18.7167C18.9716 2.34615 19.1782 2.55279 19.1782 2.80769V5.11538L21.0244 7.42308V1.42308C21.0244 0.913276 20.6111 0.5 20.1013 0.5H4.40897ZM3.4859 4.19231C2.97609 4.19231 2.56282 4.60558 2.56282 5.11538V16.6538H4.40897V6.03846H14.4222C15.9407 6.03846 16.409 6.6685 16.409 7.22927C16.409 8.05311 15.4859 9.26923 15.4859 9.26923C19.991 11.4015 20.0165 11.4009 20.0165 13.0472C20.0165 14.6838 20.0592 13.3003 20.0842 16.6538H21.9474V12.5712C21.9474 11.6311 21.6155 10.7207 21.0108 10.0012L16.921 5.13522C16.4184 4.53752 15.6782 4.19231 14.8973 4.19231H3.4859ZM1.1782 18.0385C0.668402 18.0385 0.255127 18.4517 0.255127 18.9615V23.5769C0.255127 24.0867 0.668403 24.5 1.1782 24.5H23.3321C23.8419 24.5 24.2551 24.0867 24.2551 23.5769V18.9615C24.2551 18.4517 23.8419 18.0385 23.3321 18.0385H15.5787C14.8851 19.1457 13.6582 19.8846 12.2551 19.8846C10.8521 19.8846 9.6252 19.1457 8.93151 18.0385H1.1782Z" fill="white"/>
</svg>
