<svg width="18" height="16" viewBox="0 0 18 16" fill="none" xmlns="http://www.w3.org/2000/svg">
<ellipse cx="8.87401" cy="8" rx="8.39024" ry="8" fill="white"/>
<path fill-rule="evenodd" clip-rule="evenodd" d="M8.95528 2C5.63863 2 2.95863 4.68666 2.95863 8H1.6734C1.40748 8 1.27303 8.32035 1.45929 8.51014L3.3897 10.4771C3.50657 10.5961 3.69816 10.597 3.81607 10.4789L5.78059 8.512C5.9694 8.32296 5.83551 8 5.56833 8H4.29197C4.29197 5.42334 6.38197 3.33334 8.95863 3.33334C11.5353 3.33334 13.6253 5.42334 13.6253 8C13.6253 10.5767 11.5353 12.6667 8.95863 12.6667C7.9091 12.6667 6.9434 12.318 6.16569 11.7339C5.8709 11.5125 5.45063 11.508 5.18993 11.7687C4.92952 12.0291 4.92712 12.4546 5.21429 12.6851C6.23862 13.5075 7.53843 14 8.95528 14C12.272 14 14.9586 11.3133 14.9586 8C14.9586 4.68666 12.272 2 8.95528 2ZM8.29197 5.8334C8.29197 5.55726 8.51583 5.3334 8.79197 5.3334C9.06812 5.3334 9.29197 5.55726 9.29197 5.8334V8.16671L11.2205 9.31008C11.4441 9.44262 11.5179 9.73129 11.3854 9.95489C11.2528 10.1786 10.9639 10.2524 10.7403 10.1197L8.78162 8.9573C8.47807 8.77715 8.29197 8.45032 8.29197 8.09734V5.8334Z" fill="#FF7A00"/>
</svg>
