<svg width="29" height="23" viewBox="0 0 29 23" fill="none" xmlns="http://www.w3.org/2000/svg">
<path d="M9.6897 6.29212C9.79749 6.29212 9.88573 6.19871 9.88573 6.08458V4.83929C9.88573 4.72513 9.79749 4.63174 9.6897 4.63174H5.10132C4.99349 4.63174 4.9053 4.72513 4.9053 4.83929V6.08458C4.9053 6.19871 4.99349 6.29212 5.10132 6.29212H9.6897Z" fill="#B8B8B8"/>
<path d="M12.654 10.0022C12.7618 10.0022 12.85 9.90884 12.85 9.7947V8.54941C12.85 8.43525 12.7618 8.34187 12.654 8.34187H5.10132C4.99349 8.34187 4.9053 8.43525 4.9053 8.54941V9.7947C4.9053 9.90884 4.99349 10.0022 5.10132 10.0022H12.654Z" fill="#B8B8B8"/>
<path d="M12.654 13.8456C12.7618 13.8456 12.85 13.7522 12.85 13.6381V12.3928C12.85 12.2786 12.7618 12.1852 12.654 12.1852H5.10132C4.99349 12.1852 4.9053 12.2786 4.9053 12.3928V13.6381C4.9053 13.7522 4.99349 13.8456 5.10132 13.8456H12.654Z" fill="#B8B8B8"/>
<path d="M12.654 17.6183C12.7618 17.6183 12.85 17.5248 12.85 17.4107V16.1654C12.85 16.0513 12.7618 15.9579 12.654 15.9579H5.10132C4.99349 15.9579 4.9053 16.0513 4.9053 16.1654V17.4107C4.9053 17.5248 4.99349 17.6183 5.10132 17.6183H12.654Z" fill="#B8B8B8"/>
<path fill-rule="evenodd" clip-rule="evenodd" d="M16.4294 0.125C16.8631 0.125 17.2134 0.495989 17.2134 0.955182V21.2948C17.2134 21.754 16.8631 22.125 16.4294 22.125H1.74752C1.31381 22.125 0.96344 21.754 0.96344 21.2948V0.955182C0.96344 0.495989 1.31381 0.125 1.74752 0.125H16.4294ZM2.72767 1.99292V20.2571H12.4712L12.4733 20.2571H15.4492L15.4493 1.99292L6.70572 1.99293L6.70359 1.99292H2.72767Z" fill="#B8B8B8"/>
<path d="M20.0593 3.26024C19.6717 2.36543 19.4634 1.8848 19.4634 1.4415C19.4634 0.687499 19.9233 0.125 20.4529 0.125C21.0406 0.125 21.3127 0.446965 24.0682 3.70752L24.6254 4.36667C26.9 7.05611 27.7261 8.03294 27.7261 9.37499C27.7261 10.3895 27.6203 11.4185 27.5175 12.413L27.5165 12.4223C27.4164 13.3959 27.313 14.4021 27.313 15.375C27.313 16.7275 28.3789 17.1095 28.5007 17.149C28.7309 17.2225 28.9077 17.4515 28.9523 17.7345C28.9597 17.782 28.9634 17.829 28.9634 17.8765C28.9634 18.1115 28.8734 18.336 28.7135 18.4785L24.7912 21.9785C24.6103 22.14 24.3715 22.1705 24.1665 22.0575C24.0083 21.9705 20.2897 19.8775 20.2897 16.2115C20.2897 15.409 20.3765 14.931 20.4686 14.425C20.5698 13.8685 20.6822 13.2355 20.6991 11.9175C20.6995 11.9114 20.7002 11.9055 20.7009 11.8996C20.7019 11.8914 20.7028 11.8834 20.7028 11.875V9.37499C20.7028 8.91749 20.8206 8.49549 21.0147 8.13999C21.2424 7.82699 21.5717 7.62499 21.9422 7.62499C22.6256 7.62499 23.1816 8.29799 23.1816 9.12499V12.875C23.1816 13.289 23.4589 13.625 23.8013 13.625C24.1438 13.625 24.421 13.289 24.421 12.875V9.12499C24.421 7.47099 23.3093 6.12499 21.9422 6.12499C21.7489 6.12499 21.5613 6.15499 21.3804 6.20549C21.0854 5.623 20.6809 4.706 20.2554 3.7145C20.1857 3.55189 20.1203 3.40091 20.0593 3.26024Z" fill="#B8B8B8"/>
</svg>
