<svg width="49" height="36" viewBox="0 0 49 36" fill="none" xmlns="http://www.w3.org/2000/svg">
<g clip-path="url(#clip0_1_377)">
<path d="M15.1395 10.0916C15.3265 10.0916 15.4796 9.9388 15.4796 9.75203V7.71428C15.4796 7.52748 15.3265 7.37467 15.1395 7.37467H7.17898C6.9919 7.37467 6.83889 7.52748 6.83889 7.71428V9.75203C6.83889 9.9388 6.9919 10.0916 7.17898 10.0916H15.1395Z" fill="#187779"/>
<path d="M20.2824 16.1628C20.4694 16.1628 20.6225 16.0099 20.6225 15.8231V13.7854C20.6225 13.5986 20.4694 13.4458 20.2824 13.4458H7.17898C6.9919 13.4458 6.83889 13.5986 6.83889 13.7854V15.8231C6.83889 16.0099 6.9919 16.1628 7.17898 16.1628H20.2824Z" fill="#187779"/>
<path d="M20.2824 22.4519C20.4694 22.4519 20.6225 22.2991 20.6225 22.1123V20.0746C20.6225 19.8877 20.4694 19.7349 20.2824 19.7349H7.17898C6.9919 19.7349 6.83889 19.8877 6.83889 20.0746V22.1123C6.83889 22.2991 6.9919 22.4519 7.17898 22.4519H20.2824Z" fill="#187779"/>
<path d="M20.2824 28.6253C20.4694 28.6253 20.6225 28.4725 20.6225 28.2857V26.248C20.6225 26.0612 20.4694 25.9084 20.2824 25.9084H7.17898C6.9919 25.9084 6.83889 26.0612 6.83889 26.248V28.2857C6.83889 28.4725 6.9919 28.6253 7.17898 28.6253H20.2824Z" fill="#187779"/>
<path fill-rule="evenodd" clip-rule="evenodd" d="M26.8324 0C27.5849 0 28.1928 0.607073 28.1928 1.35848V34.6415C28.1928 35.3929 27.5849 36 26.8324 36H1.36034C0.607872 36 0 35.3929 0 34.6415V1.35848C0 0.607073 0.607872 0 1.36034 0H26.8324ZM3.06084 3.05659V32.9434H19.9652L19.9689 32.9434H25.1319L25.132 3.05659L9.9625 3.05661L9.95881 3.05659H3.06084Z" fill="#187779"/>
<path d="M33.1302 5.13039C32.4577 3.66616 32.0964 2.87967 32.0964 2.15427C32.0964 0.920454 32.8941 0 33.813 0C34.8326 0 35.3047 0.526852 40.0854 5.86231L41.0521 6.94091C44.9983 11.3418 46.4316 12.9403 46.4316 15.1363C46.4316 16.7964 46.2481 18.4803 46.0697 20.1076L46.068 20.1228C45.8943 21.716 45.7149 23.3625 45.7149 24.9545C45.7149 27.1677 47.5641 27.7928 47.7755 27.8574C48.1748 27.9777 48.4816 28.3524 48.559 28.8155C48.5719 28.8932 48.5783 28.9702 48.5783 29.0479C48.5783 29.4324 48.4221 29.7998 48.1447 30.033L41.3397 35.7602C41.0258 36.0245 40.6115 36.0744 40.256 35.8895C39.9815 35.7471 33.5299 32.3222 33.5299 26.3233C33.5299 25.0102 33.6804 24.228 33.8403 23.4C34.0159 22.4893 34.2108 21.4535 34.2402 19.2968C34.2408 19.2868 34.2421 19.2771 34.2433 19.2675C34.245 19.2542 34.2467 19.241 34.2467 19.2273V15.1363C34.2467 14.3877 34.451 13.6972 34.7878 13.1154C35.1828 12.6033 35.754 12.2727 36.3969 12.2727C37.5825 12.2727 38.5472 13.374 38.5472 14.7273V20.8636C38.5472 21.5411 39.0282 22.0909 39.6224 22.0909C40.2166 22.0909 40.6975 21.5411 40.6975 20.8636V14.7273C40.6975 12.0207 38.7687 9.81817 36.3969 9.81817C36.0615 9.81817 35.7361 9.86726 35.4221 9.9499C34.9104 8.99672 34.2087 7.49618 33.4704 5.87372C33.3495 5.60764 33.236 5.36058 33.1302 5.13039Z" fill="#187779"/>
</g>
<defs>
<clipPath id="clip0_1_377">
<rect width="48.5783" height="36" fill="white"/>
</clipPath>
</defs>
</svg>
