<svg width="14" height="14" viewBox="0 0 14 14" fill="none" xmlns="http://www.w3.org/2000/svg">
<path d="M13.4453 4.28127C13.8113 5.14027 14 6.06438 14 6.99811C14 7.93185 13.8113 8.85596 13.4453 9.71495C13.0754 10.5763 12.5794 11.3211 11.9571 11.9492C11.3349 12.5773 10.5914 13.076 9.7267 13.4453C8.86564 13.8114 7.93961 14 7.00397 14C6.06833 14 5.1423 13.8114 4.28124 13.4453C3.41675 13.0755 2.67199 12.5781 2.04699 11.9533C1.42198 11.3285 0.924562 10.5841 0.554741 9.72016C0.188685 8.86049 0 7.93576 0 7.0014C0 6.06704 0.188685 5.14231 0.554741 4.28264C0.92438 3.41723 1.42179 2.67202 2.04699 2.04701C2.67218 1.42201 3.41693 0.924592 4.28124 0.554772C5.14091 0.188715 6.06564 3.05176e-05 7 3.05176e-05C7.93436 3.05176e-05 8.85909 0.188715 9.71876 0.554772C10.5831 0.924775 11.3279 1.42219 11.9533 2.04701C12.5787 2.67184 13.076 3.41659 13.4453 4.28127ZM11.8985 10.4611C11.7837 9.65353 11.5555 8.98289 11.214 8.44915C10.8725 7.91541 10.3928 7.60683 9.77489 7.52341C9.42377 7.91018 8.99564 8.21924 8.51799 8.43073C8.04035 8.64222 7.52375 8.75148 7.00137 8.75148C6.479 8.75148 5.96239 8.64222 5.48475 8.43073C5.0071 8.21924 4.57897 7.91018 4.22785 7.52341C3.60722 7.60701 3.12679 7.91559 2.78654 8.44915C2.44629 8.9827 2.21811 9.65335 2.10202 10.4611C2.65031 11.239 3.37615 11.875 4.21936 12.3164C5.07857 12.7727 6.00567 13.0009 7.00069 13.0009C7.9957 13.0009 8.92271 12.7727 9.78174 12.3164C10.6247 11.8749 11.3503 11.2389 11.8985 10.4611ZM9.12104 7.12064C9.70699 6.5347 9.99996 5.82764 9.99996 4.99947C9.99996 4.17129 9.70699 3.46423 9.12104 2.87829C8.53473 2.29198 7.82776 1.99882 7.00014 1.99882C6.17251 1.99882 5.46546 2.2918 4.87896 2.87774C4.29302 3.46369 4.00004 4.17075 4.00004 4.99892C4.00004 5.82709 4.29302 6.53415 4.87896 7.12009C5.46491 7.70604 6.17197 7.99901 7.00014 7.99901C7.82831 7.99901 8.53528 7.7064 9.12104 7.12119V7.12064Z" fill="#B8B8B8"/>
</svg>
