<svg width="14" height="13" viewBox="0 0 14 13" fill="none" xmlns="http://www.w3.org/2000/svg">
<path d="M10.5266 0.841968C10.4522 0.812076 10.3726 0.797267 10.2925 0.7984H0.613548C0.533387 0.797267 0.453801 0.812076 0.379413 0.841968C0.305026 0.87186 0.23732 0.916238 0.180233 0.972524C0.123146 1.02881 0.0778152 1.09588 0.046874 1.16984C0.0159335 1.24379 0 1.32316 0 1.40333C0 1.4835 0.0159335 1.56287 0.046874 1.63683C0.0778152 1.71078 0.123146 1.77785 0.180233 1.83414C0.23732 1.89043 0.305026 1.9348 0.379413 1.9647C0.453801 1.99459 0.533387 2.0094 0.613548 2.00826H10.2925C10.3726 2.0094 10.4522 1.99459 10.5266 1.9647C10.601 1.9348 10.6687 1.89043 10.7258 1.83414C10.7829 1.77785 10.8282 1.71078 10.8591 1.63683C10.8901 1.56287 10.906 1.4835 10.906 1.40333C10.906 1.32316 10.8901 1.24379 10.8591 1.16984C10.8282 1.09588 10.7829 1.02881 10.7258 0.972524C10.6687 0.916238 10.601 0.87186 10.5266 0.841968Z" fill="#7C86A2"/>
<path d="M5.68714 3.26169C5.61275 3.2318 5.53316 3.21699 5.453 3.21813H0.613548C0.533387 3.21699 0.453801 3.2318 0.379413 3.26169C0.305026 3.29159 0.23732 3.33596 0.180233 3.39225C0.123146 3.44854 0.0778152 3.51561 0.046874 3.58956C0.0159335 3.66352 0 3.74289 0 3.82306C0 3.90323 0.0159335 3.9826 0.046874 4.05655C0.0778152 4.13051 0.123146 4.19758 0.180233 4.25387C0.23732 4.31015 0.305026 4.35453 0.379413 4.38442C0.453801 4.41431 0.533387 4.42912 0.613548 4.42799H5.453C5.53316 4.42912 5.61275 4.41431 5.68714 4.38442C5.76152 4.35453 5.82923 4.31015 5.88631 4.25387C5.9434 4.19758 5.98873 4.13051 6.01967 4.05655C6.05061 3.9826 6.06655 3.90323 6.06655 3.82306C6.06655 3.74289 6.05061 3.66352 6.01967 3.58956C5.98873 3.51561 5.9434 3.44854 5.88631 3.39225C5.82923 3.33596 5.76152 3.29159 5.68714 3.26169Z" fill="#7C86A2"/>
<path d="M5.68714 5.68142C5.61275 5.65153 5.53316 5.63672 5.453 5.63785H2.42834C2.34818 5.63672 2.2686 5.65153 2.19421 5.68142C2.11982 5.71131 2.05212 5.75569 1.99503 5.81198C1.93794 5.86826 1.89261 5.93533 1.86167 6.00929C1.83073 6.08325 1.8148 6.16262 1.8148 6.24279C1.8148 6.32295 1.83073 6.40232 1.86167 6.47628C1.89261 6.55024 1.93794 6.61731 1.99503 6.67359C2.05212 6.72988 2.11982 6.77426 2.19421 6.80415C2.2686 6.83404 2.34818 6.84885 2.42834 6.84772H5.453C5.53316 6.84885 5.61275 6.83404 5.68714 6.80415C5.76152 6.77426 5.82923 6.72988 5.88631 6.67359C5.9434 6.61731 5.98873 6.55024 6.01967 6.47628C6.05061 6.40232 6.06655 6.32295 6.06655 6.24279C6.06655 6.16262 6.05061 6.08325 6.01967 6.00929C5.98873 5.93533 5.9434 5.86826 5.88631 5.81198C5.82923 5.75569 5.76152 5.71131 5.68714 5.68142Z" fill="#7C86A2"/>
<path d="M5.68714 8.10115C5.61275 8.07126 5.53316 8.05645 5.453 8.05758H0.613548C0.533387 8.05645 0.453801 8.07126 0.379413 8.10115C0.305026 8.13104 0.23732 8.17542 0.180233 8.2317C0.123146 8.28799 0.0778152 8.35506 0.046874 8.42902C0.0159335 8.50297 0 8.58234 0 8.66251C0 8.74268 0.0159335 8.82205 0.046874 8.89601C0.0778152 8.96996 0.123146 9.03703 0.180233 9.09332C0.23732 9.14961 0.305026 9.19398 0.379413 9.22388C0.453801 9.25377 0.533387 9.26858 0.613548 9.26744H5.453C5.53316 9.26858 5.61275 9.25377 5.68714 9.22388C5.76152 9.19398 5.82923 9.14961 5.88631 9.09332C5.9434 9.03703 5.98873 8.96996 6.01967 8.89601C6.05061 8.82205 6.06655 8.74268 6.06655 8.66251C6.06655 8.58234 6.05061 8.50297 6.01967 8.42902C5.98873 8.35506 5.9434 8.28799 5.88631 8.2317C5.82923 8.17542 5.76152 8.13104 5.68714 8.10115Z" fill="#7C86A2"/>
<path d="M5.68714 10.5209C5.61275 10.491 5.53316 10.4762 5.453 10.4773H2.42834C2.34818 10.4762 2.2686 10.491 2.19421 10.5209C2.11982 10.5508 2.05212 10.5951 1.99503 10.6514C1.93794 10.7077 1.89261 10.7748 1.86167 10.8487C1.83073 10.9227 1.8148 11.0021 1.8148 11.0822C1.8148 11.1624 1.83073 11.2418 1.86167 11.3157C1.89261 11.3897 1.93794 11.4568 1.99503 11.513C2.05212 11.5693 2.11982 11.6137 2.19421 11.6436C2.2686 11.6735 2.34818 11.6883 2.42834 11.6872H5.453C5.53316 11.6883 5.61275 11.6735 5.68714 11.6436C5.76152 11.6137 5.82923 11.5693 5.88631 11.513C5.9434 11.4568 5.98873 11.3897 6.01967 11.3157C6.05061 11.2418 6.06655 11.1624 6.06655 11.0822C6.06655 11.0021 6.05061 10.9227 6.01967 10.8487C5.98873 10.7748 5.9434 10.7077 5.88631 10.6514C5.82923 10.5951 5.76152 10.5508 5.68714 10.5209Z" fill="#7C86A2"/>
<path d="M11.0833 3.13167V5.61084C11.0833 5.85147 11.2802 6.04834 11.5208 6.04834H14V12.0275C14 12.27 13.8049 12.465 13.5625 12.465H7.4375C7.19505 12.465 7 12.27 7 12.0275V3.56917C7 3.32673 7.19505 3.13167 7.4375 3.13167H11.0833Z" fill="#7C86A2"/>
<path d="M14 5.46501V5.35381C14 5.23897 13.9544 5.12777 13.8724 5.04574L12.0878 3.25928C12.0057 3.17725 11.8945 3.13167 11.7779 3.13167H11.6667V5.46501H14Z" fill="#7C86A2"/>
</svg>
