<svg width="32" height="31" viewBox="0 0 32 31" fill="none" xmlns="http://www.w3.org/2000/svg">
<path fill-rule="evenodd" clip-rule="evenodd" d="M9.60005 2.20001C9.60005 1.09544 10.4955 0.200012 11.6 0.200012H20.4C21.5046 0.200012 22.4 1.09544 22.4 2.20001V5.00001H9.60005V2.20001ZM11.2 2.79995C11.2 2.24767 11.6477 1.79995 12.2 1.79995H19.8C20.3523 1.79995 20.8 2.24766 20.8 2.79995V4.99995H11.2V2.79995ZM0 8.59996C0 7.49539 0.895431 6.59996 2 6.59996H30C31.1046 6.59996 32 7.49539 32 8.59996V17.4C32 18.5045 31.1046 19.4 30 19.4H20.8V18.2C20.8 17.0955 19.9045 16.2 18.8 16.2H13.2C12.0954 16.2 11.2 17.0955 11.2 18.2V19.4H2C0.895431 19.4 0 18.5045 0 17.4V8.59996ZM11.2 22.2V21H1.99998C1.54975 21 1.13426 20.8513 0.800002 20.6002V28.6C0.800002 29.7046 1.69543 30.6 2.8 30.6H29.2C30.3046 30.6 31.2 29.7046 31.2 28.6V20.6002C30.8657 20.8512 30.4502 21 30 21H20.8V22.2C20.8 23.3046 19.9045 24.2 18.8 24.2H13.2C12.0954 24.2 11.2 23.3046 11.2 22.2ZM13.8 17.8001C13.2477 17.8001 12.8 18.2478 12.8 18.8001V21.6001C12.8 22.1523 13.2477 22.6001 13.8 22.6001H18.2C18.7523 22.6001 19.2 22.1523 19.2 21.6001V18.8001C19.2 18.2478 18.7523 17.8001 18.2 17.8001H13.8Z" fill="#187779"/>
</svg>
