<svg width="12" height="14" viewBox="0 0 12 14" fill="none" xmlns="http://www.w3.org/2000/svg">
<path d="M2.73225 13.7647C2.00209 13.7647 1.31563 13.4784 0.799349 12.9585C-0.26645 11.8852 -0.26645 10.1388 0.799349 9.06558L6.93259 2.88934C7.65623 2.16059 8.83379 2.16059 9.55743 2.88934C10.2811 3.61808 10.2811 4.80386 9.55743 5.53261L5.04608 10.0756C4.86685 10.2561 4.57619 10.2561 4.39693 10.0756C4.21766 9.89506 4.21766 9.6024 4.39693 9.42188L8.90827 4.87887C9.27399 4.51059 9.27399 3.91133 8.90827 3.54304C8.73109 3.36462 8.49554 3.26638 8.24501 3.26638C7.99447 3.26638 7.7589 3.36462 7.58174 3.54304L1.4485 9.71928C0.740655 10.4321 0.740655 11.592 1.4485 12.3048C1.79143 12.6501 2.24733 12.8402 2.73225 12.8402C3.21717 12.8402 3.6731 12.6501 4.016 12.3048L10.2932 5.98357C10.8018 5.47138 11.0819 4.7904 11.0819 4.06603C11.0819 3.34166 10.8018 2.66068 10.2932 2.14848C9.24318 1.09111 7.53474 1.09114 6.48476 2.14848L1.82947 6.83639C1.65023 7.01691 1.35958 7.01691 1.18031 6.83639C1.00105 6.65586 1.00105 6.3632 1.18031 6.18268L5.83561 1.49474C7.24353 0.0769471 9.53441 0.0769471 10.9423 1.49474C11.6244 2.18155 12 3.09473 12 4.06603C12 5.03733 11.6244 5.95048 10.9423 6.63731L4.66515 12.9585C4.14887 13.4784 3.46241 13.7647 2.73225 13.7647Z" fill="#7C86A2"/>
</svg>
