<svg width="56" height="56" viewBox="0 0 56 56" fill="none" xmlns="http://www.w3.org/2000/svg">
<path d="M28.0007 13.2498C30.6257 13.2498 33.1007 14.1498 34.9757 15.7935C36.9257 17.4998 38.0007 19.7935 37.9945 22.2498C37.9945 25.8623 35.6132 29.1123 31.9257 30.531C31.3597 30.7496 30.8727 31.1336 30.5282 31.6331C30.1837 32.1326 29.9977 32.7243 29.9945 33.331V34.7498C29.9945 35.0248 29.7695 35.2498 29.4945 35.2498H26.4945C26.2195 35.2498 25.9945 35.0248 25.9945 34.7498V33.406C25.9945 31.9623 26.4195 30.5373 27.2382 29.3498C28.0445 28.1873 29.1695 27.2998 30.4945 26.7935C32.6257 25.9748 34.0007 24.1935 34.0007 22.2498C34.0007 19.4935 31.307 17.2498 28.0007 17.2498C24.6945 17.2498 22.0007 19.4935 22.0007 22.2498V22.7248C22.0007 22.9998 21.7757 23.2248 21.5007 23.2248H18.5007C18.2257 23.2248 18.0007 22.9998 18.0007 22.7248V22.2498C18.0007 19.7935 19.0757 17.4998 21.0257 15.7935C22.9007 14.156 25.3757 13.2498 28.0007 13.2498Z" fill="#FAAD14"/>
<path d="M26.233 43.5175C25.7641 43.0487 25.5007 42.4128 25.5007 41.7498C25.5007 41.0867 25.7641 40.4508 26.233 39.982C26.7018 39.5132 27.3377 39.2498 28.0007 39.2498C28.6638 39.2498 29.2996 39.5132 29.7685 39.982C30.2373 40.4508 30.5007 41.0867 30.5007 41.7498C30.5007 42.4128 30.2373 43.0487 29.7685 43.5175C29.2996 43.9864 28.6638 44.2498 28.0007 44.2498C27.3377 44.2498 26.7018 43.9864 26.233 43.5175Z" fill="#FAAD14"/>
<path fill-rule="evenodd" clip-rule="evenodd" d="M0 28C0 12.5375 12.5375 0 28 0C43.4625 0 56 12.5375 56 28C56 43.4625 43.4625 56 28 56C12.5375 56 0 43.4625 0 28ZM4.75 28C4.75 40.8375 15.1625 51.25 28 51.25C40.8375 51.25 51.25 40.8375 51.25 28C51.25 15.1625 40.8375 4.75 28 4.75C15.1625 4.75 4.75 15.1625 4.75 28Z" fill="#FAAD14"/>
</svg>
