<svg width="21" height="19" viewBox="0 0 21 19" fill="none" xmlns="http://www.w3.org/2000/svg">
<path fill-rule="evenodd" clip-rule="evenodd" d="M15.4306 0.447662H5.56945C4.54941 0.447662 3.65898 1.26016 3.41233 2.41601L2.72222 5.64247L1.15104 7.47891C0.73329 7.96463 0.5 8.62705 0.5 9.31536V17.3308C0.5 18.0477 0.997776 18.6295 1.61111 18.6295H3.83333C4.44667 18.6295 4.94445 18.0477 4.94445 17.3308V16.0321H16.0556V17.3308C16.0556 18.0477 16.5533 18.6295 17.1667 18.6295H19.3889C20.0022 18.6295 20.5 18.0477 20.5 17.3308V9.31536C20.5 8.62705 20.2667 7.96722 19.849 7.47891L18.2778 5.64247L17.5877 2.41601C17.341 1.26016 16.4506 0.447662 15.4306 0.447662ZM2.72221 12.1297V9.53227H7.16666V12.1297H2.72221ZM13.8333 12.1297V9.53227H18.2778V12.1297H13.8333Z" fill="#187779"/>
</svg>
